<svg xmlns="http://www.w3.org/2000/svg" xmlns:xlink="http://www.w3.org/1999/xlink" width="600" zoomAndPan="magnify" viewBox="0 0 450 149.999998" height="200" preserveAspectRatio="xMidYMid meet" version="1.0"><defs><g/><clipPath id="7ae11fdd69"><path d="M 263.589844 29.105469 L 450 29.105469 L 450 120.894531 L 263.589844 120.894531 Z M 263.589844 29.105469 " clip-rule="nonzero"/></clipPath></defs><rect x="-45" width="540" fill="#ffffff" y="-15" height="179.999997" fill-opacity="1"/><rect x="-45" width="540" fill="#ffc61a" y="-15" height="179.999997" fill-opacity="1"/><g clip-path="url(#7ae11fdd69)"><path fill="#ffc61a" d="M 263.589844 29.105469 L 450.035156 29.105469 L 450.035156 120.894531 L 263.589844 120.894531 Z M 263.589844 29.105469 " fill-opacity="1" fill-rule="nonzero"/></g><g fill="#372a28" fill-opacity="1"><g transform="translate(276.192438, 67.356104)"><g><path d="M 10.390625 -16.390625 C 10.390625 -16.660156 10.523438 -16.796875 10.796875 -16.796875 L 13.375 -16.796875 C 13.644531 -16.796875 13.78125 -16.660156 13.78125 -16.390625 L 13.78125 -0.40625 C 13.78125 -0.132812 13.644531 0 13.375 0 L 10.796875 0 C 10.523438 0 10.390625 -0.132812 10.390625 -0.40625 L 10.390625 -6.890625 C 10.390625 -6.984375 10.34375 -7.03125 10.25 -7.03125 L 4.984375 -7.03125 C 4.890625 -7.03125 4.84375 -6.984375 4.84375 -6.890625 L 4.84375 -0.40625 C 4.84375 -0.132812 4.707031 0 4.4375 0 L 1.875 0 C 1.601562 0 1.46875 -0.132812 1.46875 -0.40625 L 1.46875 -16.390625 C 1.46875 -16.660156 1.601562 -16.796875 1.875 -16.796875 L 4.4375 -16.796875 C 4.707031 -16.796875 4.84375 -16.660156 4.84375 -16.390625 L 4.84375 -10.078125 C 4.84375 -9.984375 4.890625 -9.9375 4.984375 -9.9375 L 10.25 -9.9375 C 10.34375 -9.9375 10.390625 -9.984375 10.390625 -10.078125 Z M 10.390625 -16.390625 "/></g></g></g><g fill="#372a28" fill-opacity="1"><g transform="translate(293.664497, 67.356104)"><g><path d="M 6.1875 -12.53125 C 7.226562 -12.53125 8.15625 -12.347656 8.96875 -11.984375 C 9.789062 -11.628906 10.425781 -11.140625 10.875 -10.515625 C 11.332031 -9.890625 11.5625 -9.191406 11.5625 -8.421875 L 11.5625 -0.40625 C 11.5625 -0.132812 11.425781 0 11.15625 0 L 8.59375 0 C 8.320312 0 8.1875 -0.132812 8.1875 -0.40625 L 8.1875 -0.984375 C 8.1875 -1.046875 8.171875 -1.082031 8.140625 -1.09375 C 8.109375 -1.101562 8.066406 -1.082031 8.015625 -1.03125 C 7.273438 -0.21875 6.179688 0.1875 4.734375 0.1875 C 3.492188 0.1875 2.5 -0.113281 1.75 -0.71875 C 1 -1.320312 0.625 -2.21875 0.625 -3.40625 C 0.625 -4.632812 1.054688 -5.585938 1.921875 -6.265625 C 2.785156 -6.953125 4.015625 -7.296875 5.609375 -7.296875 L 8.046875 -7.296875 C 8.140625 -7.296875 8.1875 -7.34375 8.1875 -7.4375 L 8.1875 -7.9375 C 8.1875 -8.46875 8.019531 -8.878906 7.6875 -9.171875 C 7.363281 -9.472656 6.890625 -9.625 6.265625 -9.625 C 5.785156 -9.625 5.390625 -9.539062 5.078125 -9.375 C 4.765625 -9.21875 4.550781 -9 4.4375 -8.71875 C 4.34375 -8.488281 4.179688 -8.382812 3.953125 -8.40625 L 1.296875 -8.734375 C 1.171875 -8.753906 1.070312 -8.789062 1 -8.84375 C 0.925781 -8.894531 0.894531 -8.972656 0.90625 -9.078125 C 0.988281 -9.734375 1.265625 -10.320312 1.734375 -10.84375 C 2.210938 -11.375 2.835938 -11.785156 3.609375 -12.078125 C 4.390625 -12.378906 5.25 -12.53125 6.1875 -12.53125 Z M 5.71875 -2.328125 C 6.40625 -2.328125 6.988281 -2.507812 7.46875 -2.875 C 7.945312 -3.25 8.1875 -3.722656 8.1875 -4.296875 L 8.1875 -5.140625 C 8.1875 -5.234375 8.140625 -5.28125 8.046875 -5.28125 L 6.34375 -5.28125 C 5.613281 -5.28125 5.039062 -5.144531 4.625 -4.875 C 4.21875 -4.601562 4.015625 -4.21875 4.015625 -3.71875 C 4.015625 -3.289062 4.164062 -2.953125 4.46875 -2.703125 C 4.78125 -2.453125 5.195312 -2.328125 5.71875 -2.328125 Z M 5.71875 -2.328125 "/></g></g></g><g fill="#372a28" fill-opacity="1"><g transform="translate(308.736558, 67.356104)"><g><path d="M 7.6875 -12.53125 C 8.957031 -12.53125 9.984375 -12.132812 10.765625 -11.34375 C 11.554688 -10.5625 11.953125 -9.5 11.953125 -8.15625 L 11.953125 -0.40625 C 11.953125 -0.132812 11.816406 0 11.546875 0 L 8.96875 0 C 8.695312 0 8.5625 -0.132812 8.5625 -0.40625 L 8.5625 -7.46875 C 8.5625 -8.101562 8.382812 -8.617188 8.03125 -9.015625 C 7.6875 -9.421875 7.21875 -9.625 6.625 -9.625 C 6.03125 -9.625 5.546875 -9.421875 5.171875 -9.015625 C 4.804688 -8.617188 4.625 -8.101562 4.625 -7.46875 L 4.625 -0.40625 C 4.625 -0.132812 4.488281 0 4.21875 0 L 1.65625 0 C 1.382812 0 1.25 -0.132812 1.25 -0.40625 L 1.25 -11.921875 C 1.25 -12.203125 1.382812 -12.34375 1.65625 -12.34375 L 4.21875 -12.34375 C 4.488281 -12.34375 4.625 -12.203125 4.625 -11.921875 L 4.625 -11.25 C 4.625 -11.1875 4.640625 -11.144531 4.671875 -11.125 C 4.710938 -11.113281 4.75 -11.132812 4.78125 -11.1875 C 5.4375 -12.082031 6.40625 -12.53125 7.6875 -12.53125 Z M 7.6875 -12.53125 "/></g></g></g><g fill="#372a28" fill-opacity="1"><g transform="translate(324.264607, 67.356104)"><g><path d="M 8.6875 -16.390625 C 8.6875 -16.660156 8.820312 -16.796875 9.09375 -16.796875 L 11.65625 -16.796875 C 11.9375 -16.796875 12.078125 -16.660156 12.078125 -16.390625 L 12.078125 -0.40625 C 12.078125 -0.132812 11.9375 0 11.65625 0 L 9.09375 0 C 8.820312 0 8.6875 -0.132812 8.6875 -0.40625 L 8.6875 -1.0625 C 8.6875 -1.125 8.664062 -1.15625 8.625 -1.15625 C 8.582031 -1.164062 8.546875 -1.148438 8.515625 -1.109375 C 7.859375 -0.242188 6.945312 0.1875 5.78125 0.1875 C 4.695312 0.1875 3.734375 -0.132812 2.890625 -0.78125 C 2.046875 -1.425781 1.46875 -2.28125 1.15625 -3.34375 C 0.882812 -4.101562 0.75 -5.0625 0.75 -6.21875 C 0.75 -7.394531 0.898438 -8.382812 1.203125 -9.1875 C 1.554688 -10.21875 2.132812 -11.035156 2.9375 -11.640625 C 3.75 -12.242188 4.695312 -12.546875 5.78125 -12.546875 C 6.96875 -12.546875 7.878906 -12.15625 8.515625 -11.375 C 8.546875 -11.320312 8.582031 -11.304688 8.625 -11.328125 C 8.664062 -11.347656 8.6875 -11.390625 8.6875 -11.453125 Z M 8.1875 -3.796875 C 8.5 -4.390625 8.65625 -5.179688 8.65625 -6.171875 C 8.65625 -7.222656 8.488281 -8.046875 8.15625 -8.640625 C 7.757812 -9.265625 7.222656 -9.578125 6.546875 -9.578125 C 5.816406 -9.578125 5.257812 -9.269531 4.875 -8.65625 C 4.488281 -8.019531 4.296875 -7.179688 4.296875 -6.140625 C 4.296875 -5.203125 4.460938 -4.421875 4.796875 -3.796875 C 5.179688 -3.109375 5.765625 -2.765625 6.546875 -2.765625 C 7.253906 -2.765625 7.800781 -3.109375 8.1875 -3.796875 Z M 8.1875 -3.796875 "/></g></g></g><g fill="#372a28" fill-opacity="1"><g transform="translate(340.032665, 67.356104)"><g><path d="M 1.171875 4.78125 C 1.066406 4.78125 1.015625 4.644531 1.015625 4.375 L 1.015625 2.40625 C 1.015625 2.125 1.0625 1.984375 1.15625 1.984375 L 1.296875 1.984375 C 2.285156 1.984375 2.992188 1.859375 3.421875 1.609375 C 3.847656 1.367188 4.15625 0.863281 4.34375 0.09375 C 4.375 0.0078125 4.375 -0.0507812 4.34375 -0.09375 L 0.484375 -11.875 C 0.460938 -11.90625 0.453125 -11.957031 0.453125 -12.03125 C 0.453125 -12.125 0.484375 -12.195312 0.546875 -12.25 C 0.609375 -12.3125 0.695312 -12.34375 0.8125 -12.34375 L 3.578125 -12.34375 C 3.796875 -12.34375 3.945312 -12.226562 4.03125 -12 L 6 -4.84375 C 6.019531 -4.78125 6.050781 -4.75 6.09375 -4.75 C 6.144531 -4.75 6.175781 -4.78125 6.1875 -4.84375 L 8.0625 -11.96875 C 8.113281 -12.21875 8.265625 -12.34375 8.515625 -12.34375 L 11.28125 -12.34375 C 11.425781 -12.34375 11.53125 -12.296875 11.59375 -12.203125 C 11.65625 -12.117188 11.660156 -12.007812 11.609375 -11.875 L 7.515625 0.453125 C 7.109375 1.617188 6.695312 2.492188 6.28125 3.078125 C 5.863281 3.660156 5.28125 4.085938 4.53125 4.359375 C 3.78125 4.640625 2.71875 4.78125 1.34375 4.78125 Z M 1.171875 4.78125 "/></g></g></g><g fill="#372a28" fill-opacity="1"><g transform="translate(354.552722, 67.356104)"><g/></g></g><g fill="#372a28" fill-opacity="1"><g transform="translate(361.75276, 67.356104)"><g><path d="M 10.78125 0 C 10.570312 0 10.410156 -0.101562 10.296875 -0.3125 L 7.34375 -6.84375 C 7.3125 -6.914062 7.253906 -6.953125 7.171875 -6.953125 L 4.984375 -6.953125 C 4.890625 -6.953125 4.84375 -6.90625 4.84375 -6.8125 L 4.84375 -0.40625 C 4.84375 -0.132812 4.707031 0 4.4375 0 L 1.875 0 C 1.601562 0 1.46875 -0.132812 1.46875 -0.40625 L 1.46875 -16.421875 C 1.46875 -16.691406 1.601562 -16.828125 1.875 -16.828125 L 8.609375 -16.828125 C 9.640625 -16.828125 10.539062 -16.613281 11.3125 -16.1875 C 12.09375 -15.757812 12.691406 -15.160156 13.109375 -14.390625 C 13.535156 -13.628906 13.75 -12.753906 13.75 -11.765625 C 13.75 -10.671875 13.476562 -9.734375 12.9375 -8.953125 C 12.394531 -8.171875 11.644531 -7.617188 10.6875 -7.296875 C 10.632812 -7.273438 10.597656 -7.242188 10.578125 -7.203125 C 10.566406 -7.171875 10.578125 -7.140625 10.609375 -7.109375 L 13.78125 -0.484375 C 13.820312 -0.421875 13.84375 -0.347656 13.84375 -0.265625 C 13.84375 -0.179688 13.8125 -0.113281 13.75 -0.0625 C 13.6875 -0.0195312 13.597656 0 13.484375 0 Z M 4.984375 -13.890625 C 4.890625 -13.890625 4.84375 -13.84375 4.84375 -13.75 L 4.84375 -9.71875 C 4.84375 -9.625 4.890625 -9.578125 4.984375 -9.578125 L 8.109375 -9.578125 C 8.785156 -9.578125 9.332031 -9.769531 9.75 -10.15625 C 10.175781 -10.550781 10.390625 -11.070312 10.390625 -11.71875 C 10.390625 -12.351562 10.175781 -12.875 9.75 -13.28125 C 9.332031 -13.6875 8.785156 -13.890625 8.109375 -13.890625 Z M 4.984375 -13.890625 "/></g></g></g><g fill="#372a28" fill-opacity="1"><g transform="translate(378.888816, 67.356104)"><g><path d="M 6.1875 -12.53125 C 7.226562 -12.53125 8.15625 -12.347656 8.96875 -11.984375 C 9.789062 -11.628906 10.425781 -11.140625 10.875 -10.515625 C 11.332031 -9.890625 11.5625 -9.191406 11.5625 -8.421875 L 11.5625 -0.40625 C 11.5625 -0.132812 11.425781 0 11.15625 0 L 8.59375 0 C 8.320312 0 8.1875 -0.132812 8.1875 -0.40625 L 8.1875 -0.984375 C 8.1875 -1.046875 8.171875 -1.082031 8.140625 -1.09375 C 8.109375 -1.101562 8.066406 -1.082031 8.015625 -1.03125 C 7.273438 -0.21875 6.179688 0.1875 4.734375 0.1875 C 3.492188 0.1875 2.5 -0.113281 1.75 -0.71875 C 1 -1.320312 0.625 -2.21875 0.625 -3.40625 C 0.625 -4.632812 1.054688 -5.585938 1.921875 -6.265625 C 2.785156 -6.953125 4.015625 -7.296875 5.609375 -7.296875 L 8.046875 -7.296875 C 8.140625 -7.296875 8.1875 -7.34375 8.1875 -7.4375 L 8.1875 -7.9375 C 8.1875 -8.46875 8.019531 -8.878906 7.6875 -9.171875 C 7.363281 -9.472656 6.890625 -9.625 6.265625 -9.625 C 5.785156 -9.625 5.390625 -9.539062 5.078125 -9.375 C 4.765625 -9.21875 4.550781 -9 4.4375 -8.71875 C 4.34375 -8.488281 4.179688 -8.382812 3.953125 -8.40625 L 1.296875 -8.734375 C 1.171875 -8.753906 1.070312 -8.789062 1 -8.84375 C 0.925781 -8.894531 0.894531 -8.972656 0.90625 -9.078125 C 0.988281 -9.734375 1.265625 -10.320312 1.734375 -10.84375 C 2.210938 -11.375 2.835938 -11.785156 3.609375 -12.078125 C 4.390625 -12.378906 5.25 -12.53125 6.1875 -12.53125 Z M 5.71875 -2.328125 C 6.40625 -2.328125 6.988281 -2.507812 7.46875 -2.875 C 7.945312 -3.25 8.1875 -3.722656 8.1875 -4.296875 L 8.1875 -5.140625 C 8.1875 -5.234375 8.140625 -5.28125 8.046875 -5.28125 L 6.34375 -5.28125 C 5.613281 -5.28125 5.039062 -5.144531 4.625 -4.875 C 4.21875 -4.601562 4.015625 -4.21875 4.015625 -3.71875 C 4.015625 -3.289062 4.164062 -2.953125 4.46875 -2.703125 C 4.78125 -2.453125 5.195312 -2.328125 5.71875 -2.328125 Z M 5.71875 -2.328125 "/></g></g></g><g fill="#372a28" fill-opacity="1"><g transform="translate(393.960879, 67.356104)"><g><path d="M 7.6875 -12.53125 C 8.957031 -12.53125 9.984375 -12.132812 10.765625 -11.34375 C 11.554688 -10.5625 11.953125 -9.5 11.953125 -8.15625 L 11.953125 -0.40625 C 11.953125 -0.132812 11.816406 0 11.546875 0 L 8.96875 0 C 8.695312 0 8.5625 -0.132812 8.5625 -0.40625 L 8.5625 -7.46875 C 8.5625 -8.101562 8.382812 -8.617188 8.03125 -9.015625 C 7.6875 -9.421875 7.21875 -9.625 6.625 -9.625 C 6.03125 -9.625 5.546875 -9.421875 5.171875 -9.015625 C 4.804688 -8.617188 4.625 -8.101562 4.625 -7.46875 L 4.625 -0.40625 C 4.625 -0.132812 4.488281 0 4.21875 0 L 1.65625 0 C 1.382812 0 1.25 -0.132812 1.25 -0.40625 L 1.25 -11.921875 C 1.25 -12.203125 1.382812 -12.34375 1.65625 -12.34375 L 4.21875 -12.34375 C 4.488281 -12.34375 4.625 -12.203125 4.625 -11.921875 L 4.625 -11.25 C 4.625 -11.1875 4.640625 -11.144531 4.671875 -11.125 C 4.710938 -11.113281 4.75 -11.132812 4.78125 -11.1875 C 5.4375 -12.082031 6.40625 -12.53125 7.6875 -12.53125 Z M 7.6875 -12.53125 "/></g></g></g><g fill="#372a28" fill-opacity="1"><g transform="translate(409.488932, 67.356104)"><g><path d="M 8.6875 -16.390625 C 8.6875 -16.660156 8.820312 -16.796875 9.09375 -16.796875 L 11.65625 -16.796875 C 11.9375 -16.796875 12.078125 -16.660156 12.078125 -16.390625 L 12.078125 -0.40625 C 12.078125 -0.132812 11.9375 0 11.65625 0 L 9.09375 0 C 8.820312 0 8.6875 -0.132812 8.6875 -0.40625 L 8.6875 -1.0625 C 8.6875 -1.125 8.664062 -1.15625 8.625 -1.15625 C 8.582031 -1.164062 8.546875 -1.148438 8.515625 -1.109375 C 7.859375 -0.242188 6.945312 0.1875 5.78125 0.1875 C 4.695312 0.1875 3.734375 -0.132812 2.890625 -0.78125 C 2.046875 -1.425781 1.46875 -2.28125 1.15625 -3.34375 C 0.882812 -4.101562 0.75 -5.0625 0.75 -6.21875 C 0.75 -7.394531 0.898438 -8.382812 1.203125 -9.1875 C 1.554688 -10.21875 2.132812 -11.035156 2.9375 -11.640625 C 3.75 -12.242188 4.695312 -12.546875 5.78125 -12.546875 C 6.96875 -12.546875 7.878906 -12.15625 8.515625 -11.375 C 8.546875 -11.320312 8.582031 -11.304688 8.625 -11.328125 C 8.664062 -11.347656 8.6875 -11.390625 8.6875 -11.453125 Z M 8.1875 -3.796875 C 8.5 -4.390625 8.65625 -5.179688 8.65625 -6.171875 C 8.65625 -7.222656 8.488281 -8.046875 8.15625 -8.640625 C 7.757812 -9.265625 7.222656 -9.578125 6.546875 -9.578125 C 5.816406 -9.578125 5.257812 -9.269531 4.875 -8.65625 C 4.488281 -8.019531 4.296875 -7.179688 4.296875 -6.140625 C 4.296875 -5.203125 4.460938 -4.421875 4.796875 -3.796875 C 5.179688 -3.109375 5.765625 -2.765625 6.546875 -2.765625 C 7.253906 -2.765625 7.800781 -3.109375 8.1875 -3.796875 Z M 8.1875 -3.796875 "/></g></g></g><g fill="#372a28" fill-opacity="1"><g transform="translate(425.256989, 67.356104)"><g><path d="M 1.171875 4.78125 C 1.066406 4.78125 1.015625 4.644531 1.015625 4.375 L 1.015625 2.40625 C 1.015625 2.125 1.0625 1.984375 1.15625 1.984375 L 1.296875 1.984375 C 2.285156 1.984375 2.992188 1.859375 3.421875 1.609375 C 3.847656 1.367188 4.15625 0.863281 4.34375 0.09375 C 4.375 0.0078125 4.375 -0.0507812 4.34375 -0.09375 L 0.484375 -11.875 C 0.460938 -11.90625 0.453125 -11.957031 0.453125 -12.03125 C 0.453125 -12.125 0.484375 -12.195312 0.546875 -12.25 C 0.609375 -12.3125 0.695312 -12.34375 0.8125 -12.34375 L 3.578125 -12.34375 C 3.796875 -12.34375 3.945312 -12.226562 4.03125 -12 L 6 -4.84375 C 6.019531 -4.78125 6.050781 -4.75 6.09375 -4.75 C 6.144531 -4.75 6.175781 -4.78125 6.1875 -4.84375 L 8.0625 -11.96875 C 8.113281 -12.21875 8.265625 -12.34375 8.515625 -12.34375 L 11.28125 -12.34375 C 11.425781 -12.34375 11.53125 -12.296875 11.59375 -12.203125 C 11.65625 -12.117188 11.660156 -12.007812 11.609375 -11.875 L 7.515625 0.453125 C 7.109375 1.617188 6.695312 2.492188 6.28125 3.078125 C 5.863281 3.660156 5.28125 4.085938 4.53125 4.359375 C 3.78125 4.640625 2.71875 4.78125 1.34375 4.78125 Z M 1.171875 4.78125 "/></g></g></g><g fill="#372a28" fill-opacity="1"><g transform="translate(328.950247, 100.356102)"><g><path d="M 1.875 0 C 1.601562 0 1.46875 -0.132812 1.46875 -0.40625 L 1.46875 -16.390625 C 1.46875 -16.660156 1.601562 -16.796875 1.875 -16.796875 L 4.4375 -16.796875 C 4.707031 -16.796875 4.84375 -16.660156 4.84375 -16.390625 L 4.84375 -3.046875 C 4.84375 -2.953125 4.890625 -2.90625 4.984375 -2.90625 L 12.703125 -2.90625 C 12.972656 -2.90625 13.109375 -2.769531 13.109375 -2.5 L 13.109375 -0.40625 C 13.109375 -0.132812 12.972656 0 12.703125 0 Z M 1.875 0 "/></g></g></g><g fill="#372a28" fill-opacity="1"><g transform="translate(345.0783, 100.356102)"><g><path d="M 1.875 0 C 1.601562 0 1.46875 -0.132812 1.46875 -0.40625 L 1.46875 -16.390625 C 1.46875 -16.660156 1.601562 -16.796875 1.875 -16.796875 L 4.4375 -16.796875 C 4.707031 -16.796875 4.84375 -16.660156 4.84375 -16.390625 L 4.84375 -3.046875 C 4.84375 -2.953125 4.890625 -2.90625 4.984375 -2.90625 L 12.703125 -2.90625 C 12.972656 -2.90625 13.109375 -2.769531 13.109375 -2.5 L 13.109375 -0.40625 C 13.109375 -0.132812 12.972656 0 12.703125 0 Z M 1.875 0 "/></g></g></g><g fill="#372a28" fill-opacity="1"><g transform="translate(361.206353, 100.356102)"><g><path d="M 7.375 0.1875 C 6.125 0.1875 5.023438 -0.0507812 4.078125 -0.53125 C 3.128906 -1.019531 2.398438 -1.703125 1.890625 -2.578125 C 1.378906 -3.460938 1.125 -4.484375 1.125 -5.640625 L 1.125 -11.1875 C 1.125 -12.332031 1.378906 -13.34375 1.890625 -14.21875 C 2.398438 -15.101562 3.128906 -15.785156 4.078125 -16.265625 C 5.023438 -16.742188 6.125 -16.984375 7.375 -16.984375 C 8.601562 -16.984375 9.6875 -16.753906 10.625 -16.296875 C 11.5625 -15.847656 12.285156 -15.203125 12.796875 -14.359375 C 13.316406 -13.523438 13.578125 -12.554688 13.578125 -11.453125 C 13.578125 -11.304688 13.453125 -11.21875 13.203125 -11.1875 L 10.625 -11.015625 L 10.53125 -11.015625 C 10.3125 -11.015625 10.203125 -11.054688 10.203125 -11.140625 L 10.203125 -11.28125 C 10.203125 -12.125 9.941406 -12.800781 9.421875 -13.3125 C 8.898438 -13.832031 8.21875 -14.09375 7.375 -14.09375 C 6.507812 -14.09375 5.816406 -13.832031 5.296875 -13.3125 C 4.773438 -12.800781 4.515625 -12.125 4.515625 -11.28125 L 4.515625 -5.5 C 4.515625 -4.664062 4.773438 -3.992188 5.296875 -3.484375 C 5.816406 -2.972656 6.507812 -2.71875 7.375 -2.71875 C 8.21875 -2.71875 8.898438 -2.972656 9.421875 -3.484375 C 9.941406 -3.992188 10.203125 -4.664062 10.203125 -5.5 C 10.203125 -5.570312 10.238281 -5.632812 10.3125 -5.6875 C 10.382812 -5.75 10.484375 -5.773438 10.609375 -5.765625 L 13.171875 -5.640625 C 13.441406 -5.609375 13.578125 -5.566406 13.578125 -5.515625 L 13.578125 -5.40625 C 13.578125 -4.300781 13.316406 -3.320312 12.796875 -2.46875 C 12.285156 -1.625 11.5625 -0.96875 10.625 -0.5 C 9.6875 -0.0390625 8.601562 0.1875 7.375 0.1875 Z M 7.375 0.1875 "/></g></g></g><g fill="#372a28" fill-opacity="1"><g transform="translate(378.198411, 100.356102)"><g><path d="M 3.171875 0.09375 C 2.546875 0.09375 2.023438 -0.109375 1.609375 -0.515625 C 1.191406 -0.921875 0.984375 -1.410156 0.984375 -1.984375 C 0.984375 -2.546875 1.207031 -3.03125 1.65625 -3.4375 C 2.101562 -3.851562 2.609375 -4.0625 3.171875 -4.0625 C 3.765625 -4.0625 4.285156 -3.851562 4.734375 -3.4375 C 5.179688 -3.03125 5.40625 -2.546875 5.40625 -1.984375 C 5.40625 -1.410156 5.1875 -0.921875 4.75 -0.515625 C 4.320312 -0.109375 3.796875 0.09375 3.171875 0.09375 Z M 3.171875 0.09375 "/></g></g></g><path stroke-linecap="butt" transform="matrix(0.75, 0, 0, 0.75, 0.00000375, 74.999998)" fill="none" stroke-linejoin="miter" d="M -0.000005 0.500003 L 600.00003 0.500003 " stroke="#946c0a" stroke-width="1" stroke-opacity="1" stroke-miterlimit="4"/></svg>