<svg xmlns="http://www.w3.org/2000/svg" xmlns:xlink="http://www.w3.org/1999/xlink" width="600" zoomAndPan="magnify" viewBox="0 0 450 149.999998" height="200" preserveAspectRatio="xMidYMid meet" version="1.0"><defs><g/><clipPath id="18301b6c25"><path d="M 244 61 L 450 61 L 450 150 L 244 150 Z M 244 61 " clip-rule="nonzero"/></clipPath><clipPath id="a7968be369"><path d="M 359.363281 59.121094 L 487.066406 186.824219 L 369.042969 304.847656 L 241.34375 177.144531 Z M 359.363281 59.121094 " clip-rule="nonzero"/></clipPath><clipPath id="897c58079a"><path d="M 364.136719 63.894531 L 482.242188 182 C 484.878906 184.636719 484.878906 188.910156 482.242188 191.546875 L 373.765625 300.023438 C 371.132812 302.660156 366.859375 302.660156 364.222656 300.023438 L 246.113281 181.917969 C 243.480469 179.28125 243.480469 175.007812 246.113281 172.371094 L 354.589844 63.894531 C 357.226562 61.257812 361.5 61.257812 364.136719 63.894531 Z M 364.136719 63.894531 " clip-rule="nonzero"/></clipPath><clipPath id="e15a639561"><path d="M 182.867188 0 L 450 0 L 450 150 L 182.867188 150 Z M 182.867188 0 " clip-rule="nonzero"/></clipPath><clipPath id="0f4815eae8"><path d="M 24.390625 93.292969 L 135.390625 93.292969 L 135.390625 135.292969 L 24.390625 135.292969 Z M 24.390625 93.292969 " clip-rule="nonzero"/></clipPath><clipPath id="a7f6396356"><path d="M 59.0625 18.65625 L 101 18.65625 L 101 59.15625 L 59.0625 59.15625 Z M 59.0625 18.65625 " clip-rule="nonzero"/></clipPath></defs><rect x="-45" width="540" fill="#ffffff" y="-15" height="179.999997" fill-opacity="1"/><rect x="-45" width="540" fill="#ffc61a" y="-15" height="179.999997" fill-opacity="1"/><g clip-path="url(#18301b6c25)"><g clip-path="url(#a7968be369)"><g clip-path="url(#897c58079a)"><path fill="#372a28" d="M 359.363281 59.121094 L 487.066406 186.824219 L 369.042969 304.847656 L 241.34375 177.144531 Z M 359.363281 59.121094 " fill-opacity="1" fill-rule="nonzero"/></g></g></g><g clip-path="url(#e15a639561)"><path fill="#ffc61a" d="M 182.867188 0 L 450.054688 0 L 450.054688 150 L 182.867188 150 Z M 182.867188 0 " fill-opacity="1" fill-rule="nonzero"/></g><g fill="#372a28" fill-opacity="1"><g transform="translate(215.69208, 65.999998)"><g><path d="M 12.984375 -20.484375 C 12.984375 -20.828125 13.15625 -21 13.5 -21 L 16.703125 -21 C 17.046875 -21 17.21875 -20.828125 17.21875 -20.484375 L 17.21875 -0.515625 C 17.21875 -0.171875 17.046875 0 16.703125 0 L 13.5 0 C 13.15625 0 12.984375 -0.171875 12.984375 -0.515625 L 12.984375 -8.609375 C 12.984375 -8.734375 12.925781 -8.796875 12.8125 -8.796875 L 6.234375 -8.796875 C 6.117188 -8.796875 6.0625 -8.734375 6.0625 -8.609375 L 6.0625 -0.515625 C 6.0625 -0.171875 5.890625 0 5.546875 0 L 2.34375 0 C 2 0 1.828125 -0.171875 1.828125 -0.515625 L 1.828125 -20.484375 C 1.828125 -20.828125 2 -21 2.34375 -21 L 5.546875 -21 C 5.890625 -21 6.0625 -20.828125 6.0625 -20.484375 L 6.0625 -12.59375 C 6.0625 -12.476562 6.117188 -12.421875 6.234375 -12.421875 L 12.8125 -12.421875 C 12.925781 -12.421875 12.984375 -12.476562 12.984375 -12.59375 Z M 12.984375 -20.484375 "/></g></g></g><g fill="#372a28" fill-opacity="1"><g transform="translate(237.532078, 65.999998)"><g><path d="M 7.734375 -15.65625 C 9.035156 -15.65625 10.195312 -15.429688 11.21875 -14.984375 C 12.238281 -14.535156 13.03125 -13.921875 13.59375 -13.140625 C 14.164062 -12.359375 14.453125 -11.488281 14.453125 -10.53125 L 14.453125 -0.515625 C 14.453125 -0.171875 14.285156 0 13.953125 0 L 10.734375 0 C 10.398438 0 10.234375 -0.171875 10.234375 -0.515625 L 10.234375 -1.234375 C 10.234375 -1.304688 10.210938 -1.347656 10.171875 -1.359375 C 10.128906 -1.367188 10.078125 -1.347656 10.015625 -1.296875 C 9.097656 -0.273438 7.726562 0.234375 5.90625 0.234375 C 4.363281 0.234375 3.125 -0.144531 2.1875 -0.90625 C 1.25 -1.664062 0.78125 -2.785156 0.78125 -4.265625 C 0.78125 -5.796875 1.316406 -6.988281 2.390625 -7.84375 C 3.472656 -8.695312 5.015625 -9.125 7.015625 -9.125 L 10.046875 -9.125 C 10.171875 -9.125 10.234375 -9.179688 10.234375 -9.296875 L 10.234375 -9.9375 C 10.234375 -10.59375 10.023438 -11.101562 9.609375 -11.46875 C 9.203125 -11.84375 8.609375 -12.03125 7.828125 -12.03125 C 7.234375 -12.03125 6.738281 -11.929688 6.34375 -11.734375 C 5.957031 -11.535156 5.691406 -11.253906 5.546875 -10.890625 C 5.429688 -10.609375 5.234375 -10.476562 4.953125 -10.5 L 1.625 -10.921875 C 1.457031 -10.941406 1.328125 -10.984375 1.234375 -11.046875 C 1.148438 -11.117188 1.117188 -11.21875 1.140625 -11.34375 C 1.242188 -12.15625 1.585938 -12.890625 2.171875 -13.546875 C 2.765625 -14.210938 3.546875 -14.726562 4.515625 -15.09375 C 5.484375 -15.46875 6.554688 -15.65625 7.734375 -15.65625 Z M 7.140625 -2.90625 C 8.003906 -2.90625 8.734375 -3.132812 9.328125 -3.59375 C 9.929688 -4.0625 10.234375 -4.65625 10.234375 -5.375 L 10.234375 -6.421875 C 10.234375 -6.535156 10.171875 -6.59375 10.046875 -6.59375 L 7.921875 -6.59375 C 7.015625 -6.59375 6.300781 -6.421875 5.78125 -6.078125 C 5.269531 -5.742188 5.015625 -5.269531 5.015625 -4.65625 C 5.015625 -4.113281 5.207031 -3.6875 5.59375 -3.375 C 5.988281 -3.0625 6.503906 -2.90625 7.140625 -2.90625 Z M 7.140625 -2.90625 "/></g></g></g><g fill="#372a28" fill-opacity="1"><g transform="translate(256.372076, 65.999998)"><g><path d="M 9.59375 -15.65625 C 11.195312 -15.65625 12.488281 -15.164062 13.46875 -14.1875 C 14.445312 -13.207031 14.9375 -11.878906 14.9375 -10.203125 L 14.9375 -0.515625 C 14.9375 -0.171875 14.769531 0 14.4375 0 L 11.21875 0 C 10.875 0 10.703125 -0.171875 10.703125 -0.515625 L 10.703125 -9.328125 C 10.703125 -10.128906 10.484375 -10.78125 10.046875 -11.28125 C 9.609375 -11.78125 9.019531 -12.03125 8.28125 -12.03125 C 7.539062 -12.03125 6.941406 -11.78125 6.484375 -11.28125 C 6.023438 -10.78125 5.796875 -10.128906 5.796875 -9.328125 L 5.796875 -0.515625 C 5.796875 -0.171875 5.625 0 5.28125 0 L 2.0625 0 C 1.726562 0 1.5625 -0.171875 1.5625 -0.515625 L 1.5625 -14.90625 C 1.5625 -15.25 1.726562 -15.421875 2.0625 -15.421875 L 5.28125 -15.421875 C 5.625 -15.421875 5.796875 -15.25 5.796875 -14.90625 L 5.796875 -14.0625 C 5.796875 -13.988281 5.8125 -13.941406 5.84375 -13.921875 C 5.882812 -13.898438 5.925781 -13.921875 5.96875 -13.984375 C 6.789062 -15.097656 8 -15.65625 9.59375 -15.65625 Z M 9.59375 -15.65625 "/></g></g></g><g fill="#372a28" fill-opacity="1"><g transform="translate(275.782073, 65.999998)"><g><path d="M 10.859375 -20.484375 C 10.859375 -20.828125 11.03125 -21 11.375 -21 L 14.578125 -21 C 14.921875 -21 15.09375 -20.828125 15.09375 -20.484375 L 15.09375 -0.515625 C 15.09375 -0.171875 14.921875 0 14.578125 0 L 11.375 0 C 11.03125 0 10.859375 -0.171875 10.859375 -0.515625 L 10.859375 -1.3125 C 10.859375 -1.394531 10.832031 -1.441406 10.78125 -1.453125 C 10.726562 -1.460938 10.6875 -1.4375 10.65625 -1.375 C 9.832031 -0.300781 8.691406 0.234375 7.234375 0.234375 C 5.867188 0.234375 4.660156 -0.164062 3.609375 -0.96875 C 2.566406 -1.78125 1.84375 -2.847656 1.4375 -4.171875 C 1.101562 -5.128906 0.9375 -6.328125 0.9375 -7.765625 C 0.9375 -9.242188 1.125 -10.484375 1.5 -11.484375 C 1.9375 -12.765625 2.660156 -13.785156 3.671875 -14.546875 C 4.679688 -15.304688 5.867188 -15.6875 7.234375 -15.6875 C 8.710938 -15.6875 9.851562 -15.195312 10.65625 -14.21875 C 10.6875 -14.15625 10.726562 -14.132812 10.78125 -14.15625 C 10.832031 -14.175781 10.859375 -14.226562 10.859375 -14.3125 Z M 10.234375 -4.734375 C 10.628906 -5.472656 10.828125 -6.460938 10.828125 -7.703125 C 10.828125 -9.023438 10.617188 -10.054688 10.203125 -10.796875 C 9.703125 -11.578125 9.03125 -11.96875 8.1875 -11.96875 C 7.269531 -11.96875 6.570312 -11.585938 6.09375 -10.828125 C 5.613281 -10.023438 5.375 -8.976562 5.375 -7.6875 C 5.375 -6.5 5.582031 -5.515625 6 -4.734375 C 6.476562 -3.878906 7.207031 -3.453125 8.1875 -3.453125 C 9.070312 -3.453125 9.753906 -3.878906 10.234375 -4.734375 Z M 10.234375 -4.734375 "/></g></g></g><g fill="#372a28" fill-opacity="1"><g transform="translate(295.492071, 65.999998)"><g><path d="M 1.46875 5.96875 C 1.332031 5.96875 1.265625 5.796875 1.265625 5.453125 L 1.265625 3 C 1.265625 2.65625 1.320312 2.484375 1.4375 2.484375 L 1.625 2.484375 C 2.863281 2.484375 3.742188 2.328125 4.265625 2.015625 C 4.796875 1.710938 5.1875 1.082031 5.4375 0.125 C 5.46875 0.0195312 5.46875 -0.0625 5.4375 -0.125 L 0.59375 -14.84375 C 0.570312 -14.882812 0.5625 -14.945312 0.5625 -15.03125 C 0.5625 -15.144531 0.601562 -15.238281 0.6875 -15.3125 C 0.769531 -15.382812 0.878906 -15.421875 1.015625 -15.421875 L 4.46875 -15.421875 C 4.75 -15.421875 4.941406 -15.28125 5.046875 -15 L 7.5 -6.0625 C 7.519531 -5.976562 7.554688 -5.9375 7.609375 -5.9375 C 7.671875 -5.9375 7.710938 -5.976562 7.734375 -6.0625 L 10.078125 -14.96875 C 10.140625 -15.269531 10.332031 -15.421875 10.65625 -15.421875 L 14.09375 -15.421875 C 14.28125 -15.421875 14.410156 -15.363281 14.484375 -15.25 C 14.566406 -15.144531 14.578125 -15.007812 14.515625 -14.84375 L 9.390625 0.5625 C 8.890625 2.03125 8.378906 3.128906 7.859375 3.859375 C 7.335938 4.585938 6.609375 5.117188 5.671875 5.453125 C 4.734375 5.796875 3.40625 5.96875 1.6875 5.96875 Z M 1.46875 5.96875 "/></g></g></g><g fill="#372a28" fill-opacity="1"><g transform="translate(322.642079, 65.999998)"><g><path d="M 13.46875 0 C 13.207031 0 13.007812 -0.128906 12.875 -0.390625 L 9.1875 -8.546875 C 9.144531 -8.648438 9.070312 -8.703125 8.96875 -8.703125 L 6.234375 -8.703125 C 6.117188 -8.703125 6.0625 -8.640625 6.0625 -8.515625 L 6.0625 -0.515625 C 6.0625 -0.171875 5.890625 0 5.546875 0 L 2.34375 0 C 2 0 1.828125 -0.171875 1.828125 -0.515625 L 1.828125 -20.515625 C 1.828125 -20.859375 2 -21.03125 2.34375 -21.03125 L 10.765625 -21.03125 C 12.046875 -21.03125 13.171875 -20.765625 14.140625 -20.234375 C 15.109375 -19.703125 15.859375 -18.957031 16.390625 -18 C 16.921875 -17.039062 17.1875 -15.941406 17.1875 -14.703125 C 17.1875 -13.335938 16.847656 -12.164062 16.171875 -11.1875 C 15.492188 -10.207031 14.550781 -9.519531 13.34375 -9.125 C 13.289062 -9.101562 13.253906 -9.066406 13.234375 -9.015625 C 13.210938 -8.960938 13.222656 -8.914062 13.265625 -8.875 L 17.21875 -0.59375 C 17.28125 -0.519531 17.3125 -0.429688 17.3125 -0.328125 C 17.3125 -0.234375 17.269531 -0.15625 17.1875 -0.09375 C 17.101562 -0.03125 16.992188 0 16.859375 0 Z M 6.234375 -17.375 C 6.117188 -17.375 6.0625 -17.3125 6.0625 -17.1875 L 6.0625 -12.15625 C 6.0625 -12.03125 6.117188 -11.96875 6.234375 -11.96875 L 10.140625 -11.96875 C 10.984375 -11.96875 11.664062 -12.210938 12.1875 -12.703125 C 12.71875 -13.191406 12.984375 -13.835938 12.984375 -14.640625 C 12.984375 -15.441406 12.71875 -16.097656 12.1875 -16.609375 C 11.664062 -17.117188 10.984375 -17.375 10.140625 -17.375 Z M 6.234375 -17.375 "/></g></g></g><g fill="#372a28" fill-opacity="1"><g transform="translate(344.062076, 65.999998)"><g><path d="M 7.734375 -15.65625 C 9.035156 -15.65625 10.195312 -15.429688 11.21875 -14.984375 C 12.238281 -14.535156 13.03125 -13.921875 13.59375 -13.140625 C 14.164062 -12.359375 14.453125 -11.488281 14.453125 -10.53125 L 14.453125 -0.515625 C 14.453125 -0.171875 14.285156 0 13.953125 0 L 10.734375 0 C 10.398438 0 10.234375 -0.171875 10.234375 -0.515625 L 10.234375 -1.234375 C 10.234375 -1.304688 10.210938 -1.347656 10.171875 -1.359375 C 10.128906 -1.367188 10.078125 -1.347656 10.015625 -1.296875 C 9.097656 -0.273438 7.726562 0.234375 5.90625 0.234375 C 4.363281 0.234375 3.125 -0.144531 2.1875 -0.90625 C 1.25 -1.664062 0.78125 -2.785156 0.78125 -4.265625 C 0.78125 -5.796875 1.316406 -6.988281 2.390625 -7.84375 C 3.472656 -8.695312 5.015625 -9.125 7.015625 -9.125 L 10.046875 -9.125 C 10.171875 -9.125 10.234375 -9.179688 10.234375 -9.296875 L 10.234375 -9.9375 C 10.234375 -10.59375 10.023438 -11.101562 9.609375 -11.46875 C 9.203125 -11.84375 8.609375 -12.03125 7.828125 -12.03125 C 7.234375 -12.03125 6.738281 -11.929688 6.34375 -11.734375 C 5.957031 -11.535156 5.691406 -11.253906 5.546875 -10.890625 C 5.429688 -10.609375 5.234375 -10.476562 4.953125 -10.5 L 1.625 -10.921875 C 1.457031 -10.941406 1.328125 -10.984375 1.234375 -11.046875 C 1.148438 -11.117188 1.117188 -11.21875 1.140625 -11.34375 C 1.242188 -12.15625 1.585938 -12.890625 2.171875 -13.546875 C 2.765625 -14.210938 3.546875 -14.726562 4.515625 -15.09375 C 5.484375 -15.46875 6.554688 -15.65625 7.734375 -15.65625 Z M 7.140625 -2.90625 C 8.003906 -2.90625 8.734375 -3.132812 9.328125 -3.59375 C 9.929688 -4.0625 10.234375 -4.65625 10.234375 -5.375 L 10.234375 -6.421875 C 10.234375 -6.535156 10.171875 -6.59375 10.046875 -6.59375 L 7.921875 -6.59375 C 7.015625 -6.59375 6.300781 -6.421875 5.78125 -6.078125 C 5.269531 -5.742188 5.015625 -5.269531 5.015625 -4.65625 C 5.015625 -4.113281 5.207031 -3.6875 5.59375 -3.375 C 5.988281 -3.0625 6.503906 -2.90625 7.140625 -2.90625 Z M 7.140625 -2.90625 "/></g></g></g><g fill="#372a28" fill-opacity="1"><g transform="translate(362.902071, 65.999998)"><g><path d="M 9.59375 -15.65625 C 11.195312 -15.65625 12.488281 -15.164062 13.46875 -14.1875 C 14.445312 -13.207031 14.9375 -11.878906 14.9375 -10.203125 L 14.9375 -0.515625 C 14.9375 -0.171875 14.769531 0 14.4375 0 L 11.21875 0 C 10.875 0 10.703125 -0.171875 10.703125 -0.515625 L 10.703125 -9.328125 C 10.703125 -10.128906 10.484375 -10.78125 10.046875 -11.28125 C 9.609375 -11.78125 9.019531 -12.03125 8.28125 -12.03125 C 7.539062 -12.03125 6.941406 -11.78125 6.484375 -11.28125 C 6.023438 -10.78125 5.796875 -10.128906 5.796875 -9.328125 L 5.796875 -0.515625 C 5.796875 -0.171875 5.625 0 5.28125 0 L 2.0625 0 C 1.726562 0 1.5625 -0.171875 1.5625 -0.515625 L 1.5625 -14.90625 C 1.5625 -15.25 1.726562 -15.421875 2.0625 -15.421875 L 5.28125 -15.421875 C 5.625 -15.421875 5.796875 -15.25 5.796875 -14.90625 L 5.796875 -14.0625 C 5.796875 -13.988281 5.8125 -13.941406 5.84375 -13.921875 C 5.882812 -13.898438 5.925781 -13.921875 5.96875 -13.984375 C 6.789062 -15.097656 8 -15.65625 9.59375 -15.65625 Z M 9.59375 -15.65625 "/></g></g></g><g fill="#372a28" fill-opacity="1"><g transform="translate(382.312063, 65.999998)"><g><path d="M 10.859375 -20.484375 C 10.859375 -20.828125 11.03125 -21 11.375 -21 L 14.578125 -21 C 14.921875 -21 15.09375 -20.828125 15.09375 -20.484375 L 15.09375 -0.515625 C 15.09375 -0.171875 14.921875 0 14.578125 0 L 11.375 0 C 11.03125 0 10.859375 -0.171875 10.859375 -0.515625 L 10.859375 -1.3125 C 10.859375 -1.394531 10.832031 -1.441406 10.78125 -1.453125 C 10.726562 -1.460938 10.6875 -1.4375 10.65625 -1.375 C 9.832031 -0.300781 8.691406 0.234375 7.234375 0.234375 C 5.867188 0.234375 4.660156 -0.164062 3.609375 -0.96875 C 2.566406 -1.78125 1.84375 -2.847656 1.4375 -4.171875 C 1.101562 -5.128906 0.9375 -6.328125 0.9375 -7.765625 C 0.9375 -9.242188 1.125 -10.484375 1.5 -11.484375 C 1.9375 -12.765625 2.660156 -13.785156 3.671875 -14.546875 C 4.679688 -15.304688 5.867188 -15.6875 7.234375 -15.6875 C 8.710938 -15.6875 9.851562 -15.195312 10.65625 -14.21875 C 10.6875 -14.15625 10.726562 -14.132812 10.78125 -14.15625 C 10.832031 -14.175781 10.859375 -14.226562 10.859375 -14.3125 Z M 10.234375 -4.734375 C 10.628906 -5.472656 10.828125 -6.460938 10.828125 -7.703125 C 10.828125 -9.023438 10.617188 -10.054688 10.203125 -10.796875 C 9.703125 -11.578125 9.03125 -11.96875 8.1875 -11.96875 C 7.269531 -11.96875 6.570312 -11.585938 6.09375 -10.828125 C 5.613281 -10.023438 5.375 -8.976562 5.375 -7.6875 C 5.375 -6.5 5.582031 -5.515625 6 -4.734375 C 6.476562 -3.878906 7.207031 -3.453125 8.1875 -3.453125 C 9.070312 -3.453125 9.753906 -3.878906 10.234375 -4.734375 Z M 10.234375 -4.734375 "/></g></g></g><g fill="#372a28" fill-opacity="1"><g transform="translate(402.022061, 65.999998)"><g><path d="M 1.46875 5.96875 C 1.332031 5.96875 1.265625 5.796875 1.265625 5.453125 L 1.265625 3 C 1.265625 2.65625 1.320312 2.484375 1.4375 2.484375 L 1.625 2.484375 C 2.863281 2.484375 3.742188 2.328125 4.265625 2.015625 C 4.796875 1.710938 5.1875 1.082031 5.4375 0.125 C 5.46875 0.0195312 5.46875 -0.0625 5.4375 -0.125 L 0.59375 -14.84375 C 0.570312 -14.882812 0.5625 -14.945312 0.5625 -15.03125 C 0.5625 -15.144531 0.601562 -15.238281 0.6875 -15.3125 C 0.769531 -15.382812 0.878906 -15.421875 1.015625 -15.421875 L 4.46875 -15.421875 C 4.75 -15.421875 4.941406 -15.28125 5.046875 -15 L 7.5 -6.0625 C 7.519531 -5.976562 7.554688 -5.9375 7.609375 -5.9375 C 7.671875 -5.9375 7.710938 -5.976562 7.734375 -6.0625 L 10.078125 -14.96875 C 10.140625 -15.269531 10.332031 -15.421875 10.65625 -15.421875 L 14.09375 -15.421875 C 14.28125 -15.421875 14.410156 -15.363281 14.484375 -15.25 C 14.566406 -15.144531 14.578125 -15.007812 14.515625 -14.84375 L 9.390625 0.5625 C 8.890625 2.03125 8.378906 3.128906 7.859375 3.859375 C 7.335938 4.585938 6.609375 5.117188 5.671875 5.453125 C 4.734375 5.796875 3.40625 5.96875 1.6875 5.96875 Z M 1.46875 5.96875 "/></g></g></g><g fill="#372a28" fill-opacity="1"><g transform="translate(281.645201, 107.999996)"><g><path d="M 2.34375 0 C 2 0 1.828125 -0.171875 1.828125 -0.515625 L 1.828125 -20.484375 C 1.828125 -20.828125 2 -21 2.34375 -21 L 5.546875 -21 C 5.890625 -21 6.0625 -20.828125 6.0625 -20.484375 L 6.0625 -3.8125 C 6.0625 -3.6875 6.117188 -3.625 6.234375 -3.625 L 15.875 -3.625 C 16.207031 -3.625 16.375 -3.457031 16.375 -3.125 L 16.375 -0.515625 C 16.375 -0.171875 16.207031 0 15.875 0 Z M 2.34375 0 "/></g></g></g><g fill="#372a28" fill-opacity="1"><g transform="translate(301.805195, 107.999996)"><g><path d="M 2.34375 0 C 2 0 1.828125 -0.171875 1.828125 -0.515625 L 1.828125 -20.484375 C 1.828125 -20.828125 2 -21 2.34375 -21 L 5.546875 -21 C 5.890625 -21 6.0625 -20.828125 6.0625 -20.484375 L 6.0625 -3.8125 C 6.0625 -3.6875 6.117188 -3.625 6.234375 -3.625 L 15.875 -3.625 C 16.207031 -3.625 16.375 -3.457031 16.375 -3.125 L 16.375 -0.515625 C 16.375 -0.171875 16.207031 0 15.875 0 Z M 2.34375 0 "/></g></g></g><g fill="#372a28" fill-opacity="1"><g transform="translate(321.965189, 107.999996)"><g><path d="M 9.203125 0.234375 C 7.648438 0.234375 6.28125 -0.0664062 5.09375 -0.671875 C 3.914062 -1.285156 3.003906 -2.140625 2.359375 -3.234375 C 1.722656 -4.335938 1.40625 -5.609375 1.40625 -7.046875 L 1.40625 -13.984375 C 1.40625 -15.421875 1.722656 -16.6875 2.359375 -17.78125 C 3.003906 -18.882812 3.914062 -19.734375 5.09375 -20.328125 C 6.28125 -20.929688 7.648438 -21.234375 9.203125 -21.234375 C 10.742188 -21.234375 12.097656 -20.945312 13.265625 -20.375 C 14.441406 -19.8125 15.351562 -19.003906 16 -17.953125 C 16.65625 -16.898438 16.984375 -15.6875 16.984375 -14.3125 C 16.984375 -14.132812 16.820312 -14.023438 16.5 -13.984375 L 13.296875 -13.765625 L 13.171875 -13.765625 C 12.890625 -13.765625 12.75 -13.816406 12.75 -13.921875 L 12.75 -14.09375 C 12.75 -15.15625 12.421875 -16.003906 11.765625 -16.640625 C 11.117188 -17.285156 10.265625 -17.609375 9.203125 -17.609375 C 8.128906 -17.609375 7.265625 -17.285156 6.609375 -16.640625 C 5.960938 -16.003906 5.640625 -15.15625 5.640625 -14.09375 L 5.640625 -6.875 C 5.640625 -5.832031 5.960938 -4.988281 6.609375 -4.34375 C 7.265625 -3.707031 8.128906 -3.390625 9.203125 -3.390625 C 10.265625 -3.390625 11.117188 -3.707031 11.765625 -4.34375 C 12.421875 -4.988281 12.75 -5.832031 12.75 -6.875 C 12.75 -6.96875 12.789062 -7.050781 12.875 -7.125 C 12.96875 -7.195312 13.097656 -7.222656 13.265625 -7.203125 L 16.46875 -7.046875 C 16.8125 -7.003906 16.984375 -6.957031 16.984375 -6.90625 L 16.984375 -6.75 C 16.984375 -5.375 16.65625 -4.15625 16 -3.09375 C 15.351562 -2.03125 14.441406 -1.207031 13.265625 -0.625 C 12.097656 -0.0507812 10.742188 0.234375 9.203125 0.234375 Z M 9.203125 0.234375 "/></g></g></g><g fill="#372a28" fill-opacity="1"><g transform="translate(343.205187, 107.999996)"><g><path d="M 3.953125 0.125 C 3.179688 0.125 2.535156 -0.128906 2.015625 -0.640625 C 1.492188 -1.148438 1.234375 -1.765625 1.234375 -2.484375 C 1.234375 -3.191406 1.507812 -3.796875 2.0625 -4.296875 C 2.625 -4.804688 3.253906 -5.0625 3.953125 -5.0625 C 4.691406 -5.0625 5.34375 -4.804688 5.90625 -4.296875 C 6.46875 -3.796875 6.75 -3.191406 6.75 -2.484375 C 6.75 -1.765625 6.476562 -1.148438 5.9375 -0.640625 C 5.394531 -0.128906 4.734375 0.125 3.953125 0.125 Z M 3.953125 0.125 "/></g></g></g><path stroke-linecap="butt" transform="matrix(0.75, 0, 0, 0.75, 0.00000375, 74.999998)" fill="none" stroke-linejoin="miter" d="M -0.000005 0.500003 L 600.00003 0.500003 " stroke="#946c0a" stroke-width="1" stroke-opacity="1" stroke-miterlimit="4"/><g clip-path="url(#0f4815eae8)"><path fill="#000000" d="M 40.796875 131.953125 C 40.375 132.089844 39.976562 132.246094 39.578125 132.378906 C 39.289062 132.492188 39.023438 132.402344 38.824219 132.175781 C 38.667969 132.019531 38.558594 131.820312 38.425781 131.640625 C 38.335938 131.507812 38.292969 131.371094 38.226562 131.214844 C 38.070312 130.835938 37.757812 130.699219 37.382812 130.699219 C 37.203125 130.699219 37.003906 130.722656 36.851562 130.789062 C 36.25 131.035156 35.652344 131.261719 35.078125 131.527344 C 34.457031 131.820312 33.835938 132.15625 33.214844 132.46875 C 33.035156 132.558594 32.835938 132.625 32.636719 132.601562 C 32.28125 132.582031 32.039062 132.378906 32.039062 132.042969 C 32.039062 131.796875 31.925781 131.617188 31.773438 131.460938 C 31.527344 131.214844 31.261719 131.015625 30.972656 130.859375 C 30.730469 130.746094 30.507812 130.613281 30.265625 130.476562 C 29.734375 130.207031 29.421875 129.804688 29.488281 129.113281 C 29.355469 129.203125 29.246094 129.269531 29.15625 129.335938 C 28.203125 130.121094 27.269531 130.859375 26.382812 131.617188 C 25.851562 132.066406 25.519531 132.667969 25.230469 133.296875 C 25.210938 133.363281 25.1875 133.429688 25.144531 133.496094 C 25.054688 133.652344 24.875 133.742188 24.699219 133.699219 C 24.523438 133.652344 24.390625 133.496094 24.390625 133.320312 C 24.390625 133.207031 24.410156 133.074219 24.457031 132.960938 C 24.722656 132.289062 25.074219 131.640625 25.585938 131.105469 C 25.917969 130.746094 26.316406 130.433594 26.671875 130.121094 C 27.539062 129.382812 28.425781 128.6875 29.355469 128.039062 C 30.085938 127.523438 30.820312 126.988281 31.550781 126.472656 C 32.148438 126.046875 32.792969 125.644531 33.457031 125.332031 C 33.855469 125.128906 34.257812 124.90625 34.632812 124.683594 C 35.230469 124.324219 35.875 124.035156 36.5625 123.855469 C 36.738281 123.8125 36.917969 123.722656 37.09375 123.652344 C 37.449219 123.519531 37.78125 123.339844 38.136719 123.230469 C 38.511719 123.09375 38.800781 122.894531 39.023438 122.558594 C 39.132812 122.378906 39.289062 122.222656 39.53125 122.199219 C 39.601562 122.175781 39.6875 122.109375 39.734375 122.019531 C 39.867188 121.773438 40 121.507812 40.109375 121.261719 C 40.332031 120.769531 40.574219 120.296875 40.886719 119.875 C 41.039062 119.648438 41.195312 119.402344 41.328125 119.179688 C 41.484375 118.910156 41.660156 118.6875 41.90625 118.507812 C 42.414062 118.128906 42.902344 117.726562 43.546875 117.570312 C 44.167969 117.433594 44.609375 117.03125 45.054688 116.628906 C 45.496094 116.203125 45.941406 115.757812 46.382812 115.308594 C 46.453125 115.242188 46.539062 115.152344 46.585938 115.085938 C 46.871094 114.617188 47.25 114.257812 47.738281 114.011719 C 47.980469 113.878906 48.179688 113.675781 48.335938 113.453125 C 48.691406 112.914062 49.046875 112.378906 49.378906 111.820312 C 49.667969 111.351562 50 110.902344 50.398438 110.523438 C 51.019531 109.894531 51.617188 109.269531 52.214844 108.621094 C 52.59375 108.21875 53.058594 107.90625 53.523438 107.613281 C 54.058594 107.300781 54.566406 107.367188 55.011719 107.792969 C 55.453125 108.21875 55.851562 108.6875 56.273438 109.136719 C 56.386719 109.269531 56.496094 109.402344 56.585938 109.539062 C 56.9375 110.03125 57.425781 110.367188 58.027344 110.523438 C 58.226562 110.589844 58.425781 110.65625 58.648438 110.699219 C 59.667969 110.902344 60.53125 111.394531 61.351562 112.042969 C 61.816406 112.421875 62.171875 112.894531 62.460938 113.40625 C 62.660156 113.742188 62.882812 114.101562 63.101562 114.460938 C 63.171875 114.371094 63.214844 114.324219 63.257812 114.257812 C 63.371094 114.035156 63.480469 113.789062 63.546875 113.542969 C 63.722656 112.960938 64.011719 112.445312 64.390625 111.976562 C 64.632812 111.683594 64.855469 111.394531 65.097656 111.082031 C 65.34375 110.769531 65.566406 110.453125 65.785156 110.140625 C 66.050781 109.738281 66.40625 109.671875 66.804688 109.960938 C 66.917969 110.050781 67.027344 110.164062 67.140625 110.277344 C 67.472656 110.65625 67.804688 111.035156 68.160156 111.417969 C 68.292969 111.574219 68.445312 111.707031 68.691406 111.773438 C 68.933594 111.460938 69.15625 111.171875 69.402344 110.859375 C 69.511719 110.722656 69.601562 110.566406 69.710938 110.433594 C 70.242188 109.761719 70.777344 109.089844 71.308594 108.398438 C 71.507812 108.128906 71.707031 107.816406 71.863281 107.523438 C 72.148438 106.921875 72.503906 106.339844 72.992188 105.867188 C 73.589844 105.285156 74.191406 104.683594 74.789062 104.101562 C 75.675781 103.25 76.363281 102.265625 76.894531 101.148438 C 77.160156 100.613281 77.472656 100.097656 77.78125 99.582031 C 78.046875 99.113281 78.402344 98.730469 78.824219 98.375 C 78.957031 98.261719 79.066406 98.152344 79.179688 98.015625 C 79.976562 97.097656 80.777344 96.183594 81.597656 95.265625 C 82.015625 94.792969 82.4375 94.347656 82.859375 93.898438 C 83.148438 93.585938 83.546875 93.429688 83.96875 93.339844 C 84.101562 93.316406 84.234375 93.316406 84.34375 93.363281 C 84.746094 93.519531 85.03125 93.808594 85.210938 94.191406 C 85.320312 94.460938 85.453125 94.707031 85.609375 94.953125 C 85.875 95.355469 86.097656 95.800781 86.273438 96.269531 C 86.539062 97.007812 86.917969 97.703125 87.316406 98.398438 C 87.496094 98.710938 87.761719 98.910156 88.113281 99.046875 C 88.46875 99.179688 88.824219 99.269531 89.203125 99.292969 C 89.976562 99.359375 90.53125 99.761719 90.996094 100.34375 C 91.128906 100.523438 91.242188 100.789062 91.265625 101.015625 C 91.351562 101.683594 91.683594 102.222656 91.996094 102.78125 C 92.171875 103.070312 92.4375 103.296875 92.726562 103.453125 C 93.105469 103.675781 93.480469 103.898438 93.835938 104.144531 C 94.035156 104.28125 94.210938 104.460938 94.390625 104.636719 C 94.679688 104.90625 94.945312 105.21875 95.234375 105.464844 C 95.699219 105.867188 96.164062 106.269531 96.652344 106.675781 C 96.71875 106.585938 96.808594 106.515625 96.875 106.429688 C 97.40625 105.710938 97.960938 104.996094 98.46875 104.257812 C 98.824219 103.742188 99.289062 103.363281 99.824219 103.070312 C 100.15625 102.894531 100.464844 102.667969 100.730469 102.421875 C 100.886719 102.265625 101.0625 102.132812 101.242188 102 C 101.640625 101.683594 101.996094 101.347656 102.328125 100.96875 C 102.503906 100.789062 102.707031 100.632812 102.90625 100.476562 C 103.148438 100.296875 103.414062 100.320312 103.679688 100.5 C 103.792969 100.589844 103.902344 100.65625 103.992188 100.769531 C 105.300781 102.246094 106.742188 103.5625 108.226562 104.839844 C 108.648438 105.21875 109.023438 105.621094 109.3125 106.113281 C 109.402344 106.269531 109.511719 106.429688 109.601562 106.585938 C 109.957031 107.234375 110.488281 107.703125 111.132812 108.0625 C 111.929688 108.507812 112.707031 108.957031 113.503906 109.402344 C 114.902344 110.1875 116.164062 111.191406 117.339844 112.265625 C 117.738281 112.625 118.003906 113.09375 118.316406 113.519531 C 118.601562 113.945312 118.890625 114.371094 119.179688 114.792969 C 119.558594 115.308594 120.042969 115.667969 120.621094 115.957031 C 121 116.136719 121.332031 116.382812 121.6875 116.605469 C 121.863281 116.71875 122.019531 116.898438 122.128906 117.054688 C 122.550781 117.636719 122.992188 118.238281 123.394531 118.84375 C 123.613281 119.179688 123.792969 119.558594 123.96875 119.917969 C 124.125 120.253906 124.347656 120.523438 124.589844 120.789062 C 124.902344 121.105469 125.210938 121.417969 125.476562 121.753906 C 125.964844 122.335938 126.496094 122.847656 127.117188 123.320312 C 127.9375 123.945312 128.78125 124.550781 129.644531 125.085938 C 130.445312 125.578125 131.109375 126.203125 131.621094 127.011719 C 132.21875 127.949219 132.839844 128.867188 133.4375 129.785156 C 133.792969 130.320312 134.191406 130.8125 134.65625 131.238281 C 134.746094 131.304688 134.855469 131.371094 134.96875 131.417969 C 135.253906 131.527344 135.390625 131.730469 135.34375 131.976562 C 135.300781 132.222656 135.078125 132.355469 134.789062 132.335938 C 134.101562 132.289062 133.527344 132 132.949219 131.664062 C 132.441406 131.351562 132.039062 130.902344 131.773438 130.34375 C 131.464844 129.671875 130.976562 129.203125 130.378906 128.800781 C 129.335938 128.105469 128.335938 127.390625 127.296875 126.675781 C 127.207031 126.605469 127.117188 126.5625 127.007812 126.539062 C 127.050781 126.652344 127.097656 126.785156 127.140625 126.898438 C 127.273438 127.300781 127.429688 127.703125 127.5625 128.105469 C 127.605469 128.261719 127.582031 128.417969 127.605469 128.597656 C 127.628906 128.6875 127.628906 128.777344 127.671875 128.84375 C 128.117188 129.425781 128.316406 130.121094 128.449219 130.835938 C 128.582031 131.550781 129.023438 132.089844 129.558594 132.558594 C 129.800781 132.757812 130.066406 132.9375 130.332031 133.09375 C 130.753906 133.363281 131.132812 133.652344 131.464844 134.035156 C 131.550781 134.125 131.621094 134.257812 131.664062 134.371094 C 131.730469 134.550781 131.640625 134.75 131.484375 134.863281 C 131.332031 134.972656 131.152344 134.953125 131 134.863281 C 130.910156 134.816406 130.84375 134.726562 130.777344 134.660156 C 130.464844 134.347656 130.113281 134.058594 129.710938 133.832031 C 128.890625 133.363281 128.25 132.691406 127.804688 131.84375 C 127.671875 131.574219 127.582031 131.28125 127.539062 130.992188 C 127.429688 130.367188 127.207031 129.804688 126.828125 129.269531 C 126.253906 128.441406 125.789062 127.546875 125.410156 126.585938 C 125.234375 126.113281 125.011719 125.644531 124.746094 125.242188 C 124.433594 124.796875 124.035156 124.414062 123.660156 123.988281 C 123.28125 123.566406 122.859375 123.160156 122.507812 122.738281 C 121.664062 121.753906 121.132812 120.613281 120.910156 119.335938 C 120.84375 118.910156 120.644531 118.644531 120.3125 118.398438 C 119.777344 117.992188 119.179688 117.746094 118.535156 117.589844 C 117.984375 117.457031 117.605469 117.144531 117.339844 116.652344 C 117.09375 116.203125 116.808594 115.800781 116.476562 115.421875 C 115.964844 114.839844 115.476562 114.234375 114.96875 113.632812 C 114.765625 113.386719 114.566406 113.117188 114.390625 112.847656 C 114.101562 112.421875 113.792969 112.066406 113.371094 111.773438 C 112.4375 111.125 111.507812 110.523438 110.464844 110.121094 C 110.15625 110.007812 109.824219 109.894531 109.511719 109.828125 C 108.847656 109.671875 108.316406 109.292969 107.960938 108.710938 C 107.695312 108.285156 107.472656 107.835938 107.25 107.390625 C 106.917969 106.742188 106.5625 106.136719 106.121094 105.554688 C 105.234375 104.414062 104.347656 103.25 103.460938 102.085938 C 103.390625 102 103.304688 101.910156 103.214844 101.796875 C 103.015625 102.332031 102.859375 102.847656 102.839844 103.386719 C 102.816406 103.789062 102.816406 104.191406 102.816406 104.59375 C 102.816406 104.953125 102.839844 105.308594 102.972656 105.644531 C 103.039062 105.824219 103.015625 106.023438 102.992188 106.226562 C 102.90625 106.875 102.773438 107.546875 102.683594 108.195312 C 102.617188 108.6875 102.617188 109.179688 102.882812 109.628906 C 103.015625 109.875 103.105469 110.140625 103.105469 110.410156 C 103.105469 110.699219 103.015625 110.945312 102.773438 111.105469 C 102.503906 111.28125 102.238281 111.460938 101.929688 111.617188 C 101.550781 111.796875 101.265625 111.664062 101.109375 111.261719 C 100.910156 110.722656 100.710938 110.1875 100.511719 109.648438 C 100.375 109.3125 100.199219 109 100.023438 108.6875 C 99.957031 108.554688 99.84375 108.417969 99.691406 108.417969 C 99.269531 108.398438 99.003906 108.152344 98.78125 107.816406 C 98.714844 107.703125 98.625 107.589844 98.558594 107.480469 C 98.449219 107.277344 98.316406 107.121094 98.09375 107.007812 C 97.960938 106.941406 97.871094 106.808594 97.738281 106.695312 C 97.5625 106.898438 97.382812 107.121094 97.207031 107.324219 C 97.738281 108.195312 98.292969 109.046875 98.824219 109.917969 C 99.003906 110.230469 99.203125 110.542969 99.335938 110.859375 C 99.621094 111.507812 99.933594 112.15625 100.375 112.738281 C 100.664062 113.117188 100.976562 113.453125 101.308594 113.832031 C 101.398438 113.722656 101.441406 113.652344 101.484375 113.585938 C 101.664062 113.296875 101.863281 113.003906 102.039062 112.714844 C 102.171875 112.511719 102.371094 112.421875 102.617188 112.445312 C 103.371094 112.46875 104.058594 112.667969 104.699219 113.074219 C 105.078125 113.296875 105.476562 113.496094 105.898438 113.675781 C 106.472656 113.921875 107.027344 114.257812 107.539062 114.617188 C 107.714844 114.726562 107.847656 114.90625 108.027344 115.039062 C 108.492188 115.421875 108.957031 115.800781 109.445312 116.160156 C 109.824219 116.429688 110.089844 116.761719 110.242188 117.1875 C 110.578125 118.039062 110.953125 118.890625 111.507812 119.605469 C 112.128906 120.410156 112.792969 121.191406 113.460938 121.976562 C 113.726562 122.3125 114.035156 122.601562 114.324219 122.9375 C 114.765625 123.429688 115.121094 123.988281 115.410156 124.59375 C 115.742188 125.308594 116.074219 126.027344 116.410156 126.742188 C 116.476562 126.875 116.519531 127.011719 116.652344 127.078125 C 116.71875 127.121094 116.761719 127.1875 116.808594 127.257812 C 117.429688 128.105469 118.050781 128.957031 118.78125 129.714844 C 118.914062 129.851562 119.046875 129.960938 119.203125 130.050781 C 119.757812 130.386719 120.3125 130.699219 120.863281 131.035156 C 120.953125 131.082031 121.066406 131.125 121.175781 131.171875 C 121.464844 131.261719 121.597656 131.507812 121.507812 131.796875 C 121.417969 132.042969 121.152344 132.175781 120.886719 132.109375 C 120.796875 132.089844 120.710938 132.042969 120.644531 132 C 120.445312 131.886719 120.246094 131.753906 120.023438 131.664062 C 119.890625 131.597656 119.757812 131.597656 119.625 131.527344 C 119.445312 131.460938 119.269531 131.417969 119.136719 131.304688 C 118.359375 130.746094 117.582031 130.1875 116.808594 129.628906 C 116.339844 129.3125 115.964844 128.910156 115.722656 128.398438 C 115.585938 128.128906 115.453125 127.835938 115.320312 127.570312 C 115.300781 127.503906 115.253906 127.433594 115.253906 127.367188 C 115.253906 127.054688 115.054688 126.851562 114.902344 126.652344 C 114.8125 126.539062 114.722656 126.429688 114.632812 126.316406 C 113.726562 125.332031 112.859375 124.304688 112.128906 123.183594 C 111.886719 122.828125 111.640625 122.445312 111.398438 122.089844 C 111.199219 121.773438 110.976562 121.484375 110.753906 121.191406 C 110.332031 120.632812 109.890625 120.097656 109.46875 119.539062 C 109.289062 119.292969 109.113281 119.046875 108.980469 118.800781 C 108.449219 117.816406 107.78125 116.941406 106.941406 116.226562 C 106.5625 115.914062 106.164062 115.621094 105.742188 115.398438 C 105.300781 115.175781 104.898438 114.882812 104.457031 114.617188 C 104.167969 114.4375 103.902344 114.28125 103.613281 114.101562 C 103.347656 113.945312 103.257812 113.96875 103.148438 114.257812 C 103.039062 114.503906 102.972656 114.773438 102.882812 115.039062 C 102.839844 115.199219 102.882812 115.308594 102.992188 115.421875 C 103.660156 116.023438 103.878906 116.851562 104.125 117.660156 C 104.167969 117.792969 104.144531 117.949219 104.125 118.082031 C 103.992188 118.867188 103.925781 119.671875 103.703125 120.453125 C 103.570312 120.902344 103.4375 121.328125 103.324219 121.796875 C 103.238281 122.199219 103.191406 122.625 103.148438 123.074219 C 103.304688 123.117188 103.460938 123.160156 103.59375 123.207031 C 104.191406 123.320312 104.65625 123.632812 105.078125 124.101562 C 105.742188 124.863281 106.339844 125.644531 107.09375 126.316406 C 107.363281 126.539062 107.539062 126.851562 107.671875 127.1875 C 107.804688 127.570312 107.980469 127.925781 108.136719 128.285156 C 108.226562 128.507812 108.316406 128.730469 108.292969 128.957031 C 108.25 129.46875 108.226562 130.007812 108.160156 130.523438 C 108.136719 130.769531 108.027344 130.992188 107.914062 131.214844 C 107.695312 131.617188 107.296875 131.640625 106.984375 131.304688 C 106.808594 131.082031 106.628906 130.859375 106.496094 130.613281 C 106.207031 130.03125 105.832031 129.539062 105.367188 129.089844 C 105.011719 128.753906 104.722656 128.375 104.546875 127.925781 C 104.324219 127.414062 103.945312 127.054688 103.4375 126.832031 C 103.105469 126.695312 102.792969 126.519531 102.4375 126.339844 C 102.417969 126.472656 102.394531 126.585938 102.371094 126.695312 C 102.328125 127.144531 102.304688 127.589844 102.21875 128.039062 C 102.152344 128.375 102.0625 128.710938 101.90625 129 C 101.574219 129.695312 101.175781 130.34375 100.820312 131.015625 C 100.597656 131.4375 100.289062 131.796875 99.890625 132.042969 C 99.710938 132.15625 99.554688 132.265625 99.445312 132.46875 C 99.402344 132.535156 99.335938 132.601562 99.269531 132.625 C 98.957031 132.828125 98.582031 132.601562 98.582031 132.222656 C 98.582031 132.132812 98.625 132.019531 98.648438 131.929688 C 98.691406 131.730469 98.734375 131.507812 98.78125 131.304688 C 98.800781 131.171875 98.847656 131.035156 98.890625 130.925781 C 99.136719 130.121094 99.378906 129.3125 99.601562 128.507812 C 99.777344 127.859375 99.757812 127.1875 99.601562 126.539062 C 99.488281 126.027344 99.335938 125.511719 99.203125 124.996094 C 99.136719 124.726562 99.113281 124.4375 99.179688 124.167969 C 99.378906 123.386719 99.578125 122.625 99.777344 121.84375 C 99.976562 121.058594 100.175781 120.253906 100.375 119.449219 C 100.421875 119.292969 100.421875 119.113281 100.421875 118.957031 C 100.375 118.53125 100.464844 118.128906 100.578125 117.703125 C 100.730469 117.167969 100.886719 116.652344 101.042969 116.113281 C 101.128906 115.847656 101.0625 115.578125 101.0625 115.285156 C 101.0625 114.90625 100.863281 114.683594 100.621094 114.460938 C 99.84375 113.722656 99.203125 112.828125 98.78125 111.84375 C 98.449219 111.105469 98.046875 110.410156 97.582031 109.738281 C 97.382812 109.425781 97.207031 109.113281 97.027344 108.777344 C 96.851562 108.441406 96.675781 108.128906 96.40625 107.882812 C 95.941406 107.433594 95.5 107.007812 95.03125 106.585938 C 94.589844 106.183594 94.167969 105.757812 93.726562 105.355469 C 93.503906 105.152344 93.28125 104.929688 93.015625 104.773438 C 92.703125 104.570312 92.371094 104.390625 91.996094 104.167969 C 91.972656 104.324219 91.949219 104.460938 91.949219 104.570312 C 91.929688 105.242188 91.929688 105.914062 92.039062 106.5625 C 92.085938 106.875 92.128906 107.210938 91.996094 107.5 C 91.816406 107.949219 91.839844 108.398438 91.929688 108.84375 C 92.105469 109.628906 92.019531 110.386719 91.882812 111.171875 C 91.816406 111.550781 91.75 111.910156 91.683594 112.289062 C 91.640625 112.601562 91.664062 112.914062 91.773438 113.230469 C 92.0625 113.945312 92.394531 114.636719 92.792969 115.285156 C 93.082031 115.777344 93.304688 116.292969 93.523438 116.808594 C 93.703125 117.234375 93.746094 117.679688 93.546875 118.128906 C 93.304688 118.644531 92.859375 118.730469 92.503906 118.285156 C 92.085938 117.769531 91.664062 117.234375 91.242188 116.695312 C 90.621094 115.867188 90.023438 115.039062 89.421875 114.234375 C 89.136719 113.832031 88.890625 113.40625 88.691406 112.960938 C 88.558594 112.648438 88.515625 112.355469 88.601562 112.019531 C 88.714844 111.664062 88.824219 111.304688 88.957031 110.945312 C 89.3125 109.960938 89.355469 110.230469 88.824219 109.425781 C 88.535156 108.957031 88.292969 108.484375 88.09375 107.972656 C 87.980469 107.703125 87.960938 107.433594 88.003906 107.167969 C 88.046875 106.941406 88.09375 106.71875 88.136719 106.496094 C 88.179688 106.203125 88.203125 105.914062 88.226562 105.601562 C 88.25 104.929688 88.25 104.234375 88.292969 103.5625 C 88.335938 102.804688 88.113281 102.132812 87.847656 101.4375 C 87.582031 100.789062 87.292969 100.164062 87.007812 99.539062 C 86.984375 99.492188 86.960938 99.449219 86.917969 99.402344 C 86.539062 99.023438 86.296875 98.554688 86.074219 98.082031 C 85.785156 97.5 85.566406 96.875 85.277344 96.292969 C 85.078125 95.867188 84.832031 95.464844 84.589844 95.0625 C 84.566406 95.019531 84.546875 94.972656 84.523438 94.972656 C 84.433594 94.929688 84.324219 94.863281 84.210938 94.882812 C 84.144531 94.90625 84.078125 95.019531 84.058594 95.109375 C 83.96875 95.578125 83.878906 96.046875 83.8125 96.539062 C 83.703125 97.300781 83.613281 98.039062 83.523438 98.800781 C 83.480469 99.269531 83.480469 99.738281 83.4375 100.207031 C 83.324219 101.574219 82.972656 102.894531 82.328125 104.125 C 81.929688 104.863281 81.683594 105.621094 81.507812 106.429688 C 81.464844 106.695312 81.417969 106.964844 81.417969 107.210938 C 81.417969 107.992188 81.441406 108.777344 81.464844 109.558594 C 81.484375 109.894531 81.417969 110.207031 81.261719 110.5 C 81.019531 110.992188 80.664062 111.394531 80.289062 111.796875 C 79.957031 112.15625 79.601562 112.46875 79.3125 112.847656 C 78.847656 113.429688 78.449219 114.054688 78.003906 114.660156 C 77.847656 114.882812 77.78125 115.175781 77.761719 115.445312 C 77.714844 115.980469 77.648438 116.496094 77.628906 117.03125 C 77.582031 117.703125 77.761719 118.328125 78.160156 118.890625 C 78.492188 119.382812 78.757812 119.894531 78.867188 120.476562 C 78.914062 120.722656 78.933594 120.992188 78.890625 121.238281 C 78.78125 121.773438 78.558594 122.289062 78.246094 122.757812 C 77.980469 123.160156 77.714844 123.566406 77.449219 123.96875 C 77.050781 124.570312 76.941406 125.21875 77.117188 125.9375 C 77.40625 127.144531 77.78125 128.308594 78.226562 129.449219 C 78.648438 130.5 79.089844 131.550781 79.488281 132.625 C 79.6875 133.160156 79.84375 133.742188 80 134.304688 C 80.066406 134.59375 79.910156 134.839844 79.667969 134.90625 C 79.511719 134.953125 79.355469 134.929688 79.222656 134.816406 C 79.023438 134.636719 78.800781 134.460938 78.625 134.257812 C 78.515625 134.125 78.425781 133.96875 78.359375 133.8125 C 78.003906 133.050781 77.515625 132.378906 77.050781 131.707031 C 76.828125 131.394531 76.652344 131.035156 76.453125 130.722656 C 76.140625 130.230469 75.851562 129.738281 75.519531 129.292969 C 75.277344 128.957031 75.054688 128.597656 74.878906 128.21875 C 74.765625 127.972656 74.632812 127.726562 74.476562 127.480469 C 74.367188 127.300781 74.210938 127.144531 74.035156 127.011719 C 73.792969 126.832031 73.503906 126.765625 73.191406 126.898438 C 72.859375 127.078125 72.527344 127.234375 72.261719 127.457031 C 71.730469 127.882812 71.21875 128.351562 70.6875 128.777344 C 70.199219 129.203125 69.6875 129.605469 69.203125 130.007812 C 68.601562 130.5 68.003906 130.992188 67.40625 131.507812 C 66.453125 132.3125 65.363281 132.894531 64.167969 133.25 C 63.835938 133.363281 63.457031 133.386719 63.125 133.40625 C 62.636719 133.429688 62.347656 133.050781 62.460938 132.582031 C 62.636719 131.773438 62.925781 131.015625 63.371094 130.296875 C 64.167969 129.023438 64.988281 127.75 65.964844 126.605469 C 66.386719 126.136719 66.761719 125.621094 67.160156 125.128906 C 67.25 124.996094 67.316406 124.839844 67.382812 124.707031 C 67.425781 124.59375 67.40625 124.503906 67.316406 124.4375 C 67.160156 124.324219 67.007812 124.234375 66.828125 124.125 C 66.738281 124.078125 66.652344 124.078125 66.5625 124.058594 C 65.453125 123.609375 64.257812 123.476562 63.101562 123.160156 C 62.617188 123.027344 62.238281 122.78125 61.839844 122.492188 C 61.617188 122.3125 61.574219 122.042969 61.730469 121.796875 C 61.996094 121.417969 62.261719 121.035156 62.527344 120.679688 C 62.75 120.410156 63.058594 120.230469 63.371094 120.097656 C 64.011719 119.828125 64.589844 119.449219 65.121094 118.976562 C 65.210938 118.910156 65.296875 118.820312 65.34375 118.730469 C 65.476562 118.308594 65.785156 117.992188 66.097656 117.703125 C 66.519531 117.34375 66.785156 116.875 67.027344 116.382812 C 67.183594 116.070312 67.207031 115.710938 67.027344 115.398438 C 66.605469 114.660156 66.386719 113.855469 66.1875 113.027344 C 66.074219 112.625 65.964844 112.222656 65.851562 111.773438 C 65.785156 111.820312 65.71875 111.863281 65.699219 111.910156 C 65.519531 112.132812 65.34375 112.335938 65.1875 112.558594 C 64.921875 112.914062 64.699219 113.273438 64.542969 113.699219 C 64.34375 114.28125 64.058594 114.792969 63.703125 115.285156 C 63.589844 115.445312 63.523438 115.601562 63.414062 115.757812 C 63.347656 115.847656 63.257812 115.9375 63.171875 116.023438 C 63.058594 116.113281 62.949219 116.203125 62.96875 116.382812 C 62.96875 116.472656 62.925781 116.5625 62.859375 116.628906 C 62.304688 117.253906 61.773438 117.882812 61.21875 118.484375 C 60.820312 118.933594 60.308594 119.292969 59.84375 119.671875 C 59.511719 119.941406 59.199219 120.1875 58.890625 120.476562 C 58.445312 120.878906 58.027344 121.304688 57.582031 121.730469 C 57.472656 121.84375 57.359375 121.953125 57.273438 122.066406 C 56.628906 122.960938 55.917969 123.8125 55.363281 124.773438 C 55.054688 125.308594 54.609375 125.710938 54.167969 126.113281 C 53.902344 126.382812 53.636719 126.652344 53.324219 126.875 C 53.015625 127.144531 52.683594 127.367188 52.328125 127.589844 C 51.996094 127.816406 51.683594 128.039062 51.394531 128.328125 C 51.242188 128.484375 51.0625 128.621094 50.90625 128.753906 C 50.507812 129.136719 50.109375 129.515625 49.6875 129.875 C 49.578125 129.960938 49.535156 130.074219 49.554688 130.230469 C 49.578125 130.34375 49.554688 130.476562 49.578125 130.589844 C 49.621094 130.992188 49.535156 131.394531 49.355469 131.753906 C 48.933594 132.667969 48.335938 133.429688 47.449219 133.945312 C 47.09375 134.144531 46.761719 134.371094 46.40625 134.59375 C 46.273438 134.683594 46.140625 134.773438 46.074219 134.929688 C 45.941406 135.175781 45.699219 135.265625 45.429688 135.242188 C 45.230469 135.21875 45.078125 135.128906 45.011719 134.929688 C 44.945312 134.726562 44.964844 134.550781 45.097656 134.390625 C 45.164062 134.324219 45.253906 134.257812 45.320312 134.191406 C 45.585938 134.011719 45.851562 133.832031 46.117188 133.675781 C 46.429688 133.476562 46.738281 133.273438 47.050781 133.09375 C 47.78125 132.667969 48.226562 132 48.558594 131.238281 C 48.625 131.105469 48.644531 130.945312 48.644531 130.789062 C 48.644531 130.523438 48.625 130.230469 48.601562 129.960938 C 48.578125 129.648438 48.644531 129.359375 48.800781 129.113281 C 48.933594 128.890625 49.066406 128.6875 49.246094 128.484375 C 49.601562 128.039062 49.976562 127.613281 50.355469 127.1875 C 50.488281 127.03125 50.597656 126.875 50.621094 126.652344 C 50.664062 126.359375 50.820312 126.113281 51.042969 125.914062 C 51.195312 125.78125 51.328125 125.667969 51.507812 125.554688 C 52.4375 124.972656 53.148438 124.167969 53.746094 123.273438 C 54.144531 122.648438 54.542969 122.019531 54.855469 121.328125 C 55.078125 120.789062 55.429688 120.320312 55.832031 119.894531 C 56.183594 119.492188 56.5625 119.136719 56.9375 118.730469 C 57.160156 118.507812 57.382812 118.261719 57.539062 117.992188 C 57.894531 117.414062 58.425781 117.144531 59.066406 117.054688 C 59.421875 117.007812 59.777344 116.941406 60.132812 117.03125 C 60.308594 117.078125 60.464844 116.988281 60.621094 116.875 C 61.175781 116.449219 61.75 116.023438 62.304688 115.601562 C 62.59375 115.375 62.617188 115.285156 62.4375 114.996094 C 62.082031 114.414062 61.730469 113.832031 61.394531 113.273438 C 61.351562 113.207031 61.308594 113.140625 61.242188 113.074219 C 60.507812 112.421875 59.753906 111.820312 58.78125 111.617188 C 58.535156 111.574219 58.292969 111.484375 58.046875 111.417969 C 57.140625 111.171875 56.429688 110.699219 55.875 109.941406 C 55.609375 109.558594 55.277344 109.222656 54.988281 108.867188 C 54.964844 108.890625 54.945312 108.890625 54.921875 108.910156 C 54.945312 109.023438 54.964844 109.136719 55.011719 109.246094 C 55.34375 110.03125 55.230469 110.746094 54.8125 111.460938 C 54.476562 112 54.277344 112.582031 54.078125 113.183594 C 53.769531 114.125 53.371094 115.039062 53.015625 115.980469 C 52.660156 116.941406 51.90625 117.523438 51.109375 118.0625 C 50.929688 118.171875 50.730469 118.195312 50.53125 118.082031 C 50.332031 117.972656 50.265625 117.769531 50.289062 117.546875 C 50.332031 117.210938 50.398438 116.875 50.488281 116.5625 C 50.707031 115.777344 50.820312 114.953125 50.929688 114.144531 C 50.953125 113.945312 50.953125 113.742188 50.863281 113.542969 C 50.773438 113.339844 50.707031 113.117188 50.621094 112.871094 C 50.042969 113.832031 49.535156 114.773438 49.398438 115.890625 C 49.332031 116.382812 49.265625 116.875 49.222656 117.367188 C 49.15625 117.859375 49 118.328125 48.734375 118.730469 C 48.667969 118.84375 48.601562 118.933594 48.511719 119.023438 C 47.359375 120.410156 46.628906 122.042969 45.875 123.652344 C 45.765625 123.898438 45.675781 124.167969 45.652344 124.460938 C 45.585938 124.953125 45.453125 125.398438 45.253906 125.847656 C 44.878906 126.765625 44.5 127.679688 44.101562 128.597656 C 43.679688 129.582031 43.148438 130.523438 42.527344 131.394531 C 42.28125 131.730469 42.039062 132.089844 41.792969 132.421875 C 41.726562 132.511719 41.660156 132.582031 41.59375 132.648438 C 41.441406 132.757812 41.285156 132.78125 41.109375 132.691406 C 40.929688 132.601562 40.839844 132.46875 40.839844 132.265625 C 40.753906 132.15625 40.773438 132.042969 40.796875 131.953125 Z M 43.769531 118.484375 C 43.65625 118.507812 43.613281 118.53125 43.570312 118.53125 C 43.257812 118.621094 43.015625 118.84375 42.75 119.023438 C 42.460938 119.203125 42.214844 119.449219 42.039062 119.785156 C 41.949219 119.941406 41.863281 120.097656 41.773438 120.230469 C 41.351562 120.8125 41.019531 121.4375 40.6875 122.089844 C 40.621094 122.246094 40.597656 122.378906 40.640625 122.535156 C 40.707031 122.78125 40.773438 123.050781 40.820312 123.320312 C 40.929688 123.832031 41.019531 124.347656 41.128906 124.863281 C 41.308594 125.757812 41.351562 126.628906 41.019531 127.503906 C 40.886719 127.816406 40.820312 128.171875 40.753906 128.507812 C 40.6875 128.777344 40.664062 129.046875 40.730469 129.335938 C 40.863281 129.917969 40.972656 130.523438 41.109375 131.105469 C 41.109375 131.125 41.128906 131.125 41.152344 131.148438 C 41.195312 131.058594 41.21875 130.96875 41.261719 130.878906 C 41.550781 130.03125 41.839844 129.179688 42.148438 128.328125 C 42.28125 127.996094 42.414062 127.636719 42.59375 127.324219 C 43.191406 126.316406 43.613281 125.21875 44.054688 124.144531 C 44.125 123.988281 44.167969 123.832031 44.125 123.632812 C 44.011719 123.074219 44.035156 122.511719 44.257812 121.976562 C 44.34375 121.773438 44.410156 121.550781 44.433594 121.328125 C 44.476562 121.082031 44.5 120.8125 44.433594 120.589844 C 44.234375 119.851562 43.988281 119.179688 43.769531 118.484375 Z M 80.199219 104.101562 C 80.199219 103.699219 80.222656 103.296875 80.199219 102.894531 C 80.199219 102.757812 80.132812 102.625 80.089844 102.492188 C 80.066406 102.402344 80 102.3125 79.976562 102.222656 C 79.933594 102 79.777344 101.886719 79.554688 101.929688 C 79.46875 101.953125 79.378906 102 79.3125 102.042969 C 78.402344 102.601562 77.738281 103.363281 77.382812 104.371094 C 77.183594 104.929688 76.894531 105.421875 76.539062 105.890625 C 75.917969 106.695312 75.277344 107.5 74.589844 108.238281 C 74.476562 108.351562 74.367188 108.484375 74.300781 108.621094 C 74.167969 108.890625 74.210938 109.269531 74.410156 109.449219 C 74.589844 109.605469 74.855469 109.714844 75.210938 109.515625 C 75.367188 109.425781 75.542969 109.3125 75.742188 109.269531 C 76.296875 109.15625 76.695312 108.84375 77.050781 108.417969 C 77.582031 107.769531 78.179688 107.144531 78.890625 106.675781 C 79.046875 106.5625 79.222656 106.472656 79.402344 106.40625 C 79.621094 106.339844 79.800781 106.203125 79.957031 106.046875 C 80.175781 105.800781 80.222656 105.511719 80.222656 105.21875 C 80.199219 104.882812 80.199219 104.480469 80.199219 104.101562 Z M 72.460938 116.988281 C 72.460938 116.515625 72.460938 116.046875 72.460938 115.578125 C 72.460938 115.445312 72.4375 115.308594 72.371094 115.199219 C 72.304688 115.085938 72.238281 114.996094 72.238281 114.863281 C 72.214844 114.726562 72.128906 114.617188 71.996094 114.636719 C 71.90625 114.636719 71.796875 114.707031 71.707031 114.773438 C 71.664062 114.792969 71.664062 114.863281 71.640625 114.90625 C 71.21875 115.890625 70.777344 116.875 70.355469 117.859375 C 70.265625 118.082031 70.242188 118.308594 70.265625 118.554688 C 70.332031 118.976562 70.375 119.382812 70.441406 119.804688 C 70.488281 120.207031 70.554688 120.613281 70.597656 121.015625 C 70.621094 121.191406 70.707031 121.351562 70.910156 121.394531 C 71.085938 121.4375 71.21875 121.328125 71.328125 121.191406 C 71.617188 120.835938 71.863281 120.453125 71.996094 120.03125 C 72.082031 119.761719 72.195312 119.492188 72.285156 119.222656 C 72.394531 118.910156 72.460938 118.597656 72.460938 118.261719 C 72.460938 117.835938 72.460938 117.414062 72.460938 116.988281 Z M 72.460938 116.988281 " fill-opacity="1" fill-rule="nonzero"/></g><path fill="#000000" d="M 84.125 129.425781 C 83.769531 129.425781 83.523438 129.359375 83.324219 129.179688 C 82.636719 128.644531 82.039062 128.039062 81.796875 127.167969 C 81.707031 126.875 81.53125 126.628906 81.308594 126.449219 C 81.019531 126.226562 80.796875 125.9375 80.710938 125.578125 C 80.574219 124.996094 80.199219 124.617188 79.753906 124.28125 C 79.46875 124.058594 79.402344 123.8125 79.46875 123.453125 C 79.554688 122.960938 79.667969 122.46875 79.820312 122 C 79.890625 121.796875 80.023438 121.707031 80.222656 121.664062 C 80.796875 121.527344 81.195312 121.796875 81.53125 122.222656 C 81.574219 122.265625 81.597656 122.335938 81.640625 122.355469 C 82.371094 123.050781 82.660156 123.945312 82.90625 124.863281 C 83.015625 125.289062 83.191406 125.644531 83.480469 125.957031 C 83.703125 126.183594 83.878906 126.472656 84.035156 126.765625 C 84.300781 127.257812 84.566406 127.75 84.722656 128.308594 C 84.746094 128.398438 84.765625 128.464844 84.789062 128.554688 C 84.855469 129 84.523438 129.425781 84.125 129.425781 Z M 84.125 129.425781 " fill-opacity="1" fill-rule="nonzero"/><path fill="#000000" d="M 97.40625 124.304688 C 97.382812 124.90625 97.273438 125.421875 97.09375 125.914062 C 97.027344 126.113281 96.875 126.25 96.652344 126.273438 C 96.429688 126.292969 96.273438 126.183594 96.1875 125.980469 C 96.074219 125.78125 95.988281 125.554688 95.921875 125.332031 C 95.808594 125.042969 95.71875 124.726562 95.632812 124.4375 C 95.585938 124.28125 95.519531 124.144531 95.476562 124.011719 C 95.210938 123.09375 94.699219 122.289062 94.125 121.550781 C 93.945312 121.328125 93.792969 121.105469 93.660156 120.859375 C 93.480469 120.566406 93.523438 120.453125 93.726562 120.164062 C 93.945312 119.828125 94.210938 119.785156 94.566406 119.828125 C 95.121094 119.894531 95.652344 120.097656 96.164062 120.296875 C 96.386719 120.386719 96.519531 120.566406 96.609375 120.789062 C 96.851562 121.4375 97.050781 122.089844 97.140625 122.78125 C 97.183594 123.050781 97.25 123.296875 97.292969 123.566406 C 97.316406 123.855469 97.382812 124.125 97.40625 124.304688 Z M 97.40625 124.304688 " fill-opacity="1" fill-rule="nonzero"/><g clip-path="url(#a7f6396356)"><path fill="#100f0d" d="M 90.972656 33.054688 C 90.839844 32.917969 90.660156 32.851562 90.484375 32.851562 C 90.308594 32.851562 90.132812 32.917969 89.996094 33.054688 L 88.527344 34.515625 L 83.628906 29.628906 L 84.828125 28.433594 C 85.625 27.640625 85.976562 26.546875 85.796875 25.4375 C 85.617188 24.328125 84.9375 23.402344 83.925781 22.898438 L 78.429688 20.15625 L 78.46875 20.121094 L 88.292969 22.078125 C 89.5 22.324219 90.605469 22.910156 91.476562 23.78125 L 95.382812 27.679688 L 93.910156 29.144531 C 93.78125 29.273438 93.710938 29.449219 93.710938 29.632812 C 93.710938 29.8125 93.78125 29.992188 93.910156 30.121094 L 95.378906 31.589844 C 95.546875 31.75 95.78125 31.824219 96.007812 31.777344 L 97.730469 31.433594 C 97.960938 31.386719 98.191406 31.457031 98.355469 31.621094 L 99.300781 32.566406 L 93.425781 38.429688 L 92.476562 37.488281 C 92.3125 37.320312 92.242188 37.089844 92.289062 36.863281 L 92.632812 35.144531 C 92.679688 34.917969 92.605469 34.683594 92.441406 34.519531 Z M 65.265625 55.773438 C 64.460938 56.578125 63.140625 56.578125 62.328125 55.773438 C 61.519531 54.960938 61.519531 53.644531 62.328125 52.839844 L 83.628906 31.585938 L 86.566406 34.519531 Z M 91.75 46.714844 C 93.453125 46.515625 95.121094 47.089844 96.332031 48.292969 C 97.75 49.707031 98.273438 51.753906 97.765625 53.632812 L 94.710938 50.582031 C 94.578125 50.453125 94.402344 50.378906 94.21875 50.378906 L 91.28125 50.378906 C 90.898438 50.378906 90.589844 50.691406 90.589844 51.070312 L 90.589844 54 C 90.589844 54.183594 90.660156 54.363281 90.792969 54.492188 L 93.847656 57.539062 C 91.964844 58.046875 89.914062 57.523438 88.496094 56.113281 C 87.289062 54.90625 86.714844 53.238281 86.914062 51.542969 C 87.042969 50.460938 86.683594 49.410156 85.933594 48.667969 L 80.140625 42.890625 L 83.082031 39.953125 L 88.871094 45.730469 C 89.617188 46.488281 90.671875 46.84375 91.75 46.714844 Z M 67.703125 31.90625 C 67.554688 31.90625 67.410156 31.914062 67.261719 31.929688 C 65.558594 32.128906 63.890625 31.554688 62.679688 30.355469 C 61.265625 28.941406 60.738281 26.894531 61.25 25.015625 L 64.304688 28.0625 C 64.433594 28.191406 64.613281 28.265625 64.796875 28.265625 L 67.730469 28.265625 C 68.113281 28.265625 68.425781 27.953125 68.425781 27.574219 L 68.425781 24.644531 C 68.425781 24.460938 68.351562 24.28125 68.222656 24.152344 L 65.167969 21.105469 C 67.050781 20.597656 69.101562 21.117188 70.515625 22.53125 C 71.722656 23.738281 72.296875 25.410156 72.101562 27.105469 C 71.96875 28.183594 72.324219 29.234375 73.082031 29.976562 L 78.179688 35.066406 L 75.238281 38 L 70.140625 32.914062 C 69.496094 32.261719 68.625 31.90625 67.703125 31.90625 Z M 91.5 38.464844 L 92.933594 39.894531 C 93.070312 40.03125 93.246094 40.097656 93.425781 40.097656 C 93.601562 40.097656 93.777344 40.03125 93.910156 39.894531 L 100.769531 33.054688 C 101.039062 32.785156 101.039062 32.347656 100.769531 32.078125 L 99.335938 30.644531 C 98.84375 30.152344 98.144531 29.941406 97.457031 30.074219 L 96.101562 30.347656 L 95.378906 29.632812 L 96.851562 28.167969 C 96.984375 28.039062 97.054688 27.859375 97.054688 27.679688 C 97.054688 27.496094 96.984375 27.320312 96.851562 27.191406 L 92.457031 22.804688 C 91.390625 21.738281 90.042969 21.019531 88.566406 20.722656 L 78.375 18.691406 C 78.148438 18.644531 77.914062 18.71875 77.75 18.878906 L 76.769531 19.859375 C 76.613281 20.015625 76.542969 20.238281 76.578125 20.457031 C 76.613281 20.679688 76.753906 20.863281 76.949219 20.964844 L 83.308594 24.136719 C 83.910156 24.4375 84.324219 24.996094 84.429688 25.660156 C 84.539062 26.324219 84.328125 26.980469 83.847656 27.457031 L 82.15625 29.144531 C 82.027344 29.273438 81.957031 29.449219 81.957031 29.632812 C 81.957031 29.8125 82.027344 29.992188 82.15625 30.121094 L 82.648438 30.609375 L 79.160156 34.085938 L 74.058594 28.996094 C 73.609375 28.554688 73.394531 27.925781 73.476562 27.265625 C 73.722656 25.144531 73.003906 23.066406 71.496094 21.554688 C 69.421875 19.484375 66.253906 18.945312 63.617188 20.210938 C 63.414062 20.308594 63.269531 20.496094 63.230469 20.71875 C 63.195312 20.941406 63.265625 21.164062 63.425781 21.324219 L 67.039062 24.925781 L 67.039062 26.882812 L 65.078125 26.882812 L 61.46875 23.277344 C 61.308594 23.117188 61.082031 23.046875 60.863281 23.082031 C 60.640625 23.121094 60.449219 23.265625 60.351562 23.46875 C 59.085938 26.097656 59.625 29.261719 61.699219 31.332031 C 63.214844 32.832031 65.300781 33.554688 67.429688 33.304688 C 68.082031 33.222656 68.714844 33.4375 69.160156 33.886719 L 74.261719 38.976562 L 61.347656 51.863281 C 60 53.203125 60 55.398438 61.347656 56.75 C 62.023438 57.425781 62.914062 57.757812 63.800781 57.757812 C 64.6875 57.757812 65.574219 57.421875 66.246094 56.75 L 79.160156 43.867188 L 84.957031 49.648438 C 85.40625 50.089844 85.617188 50.722656 85.539062 51.378906 C 85.289062 53.5 86.007812 55.578125 87.515625 57.089844 C 88.839844 58.414062 90.617188 59.113281 92.414062 59.113281 C 93.425781 59.113281 94.449219 58.890625 95.398438 58.433594 C 95.601562 58.335938 95.742188 58.148438 95.78125 57.925781 C 95.820312 57.703125 95.746094 57.480469 95.589844 57.320312 L 91.972656 53.71875 L 91.972656 51.761719 L 93.933594 51.761719 L 97.546875 55.371094 C 97.703125 55.527344 97.933594 55.597656 98.152344 55.5625 C 98.375 55.523438 98.5625 55.378906 98.660156 55.179688 C 99.929688 52.546875 99.386719 49.382812 97.3125 47.3125 C 95.800781 45.8125 93.714844 45.09375 91.585938 45.339844 C 90.929688 45.421875 90.300781 45.207031 89.851562 44.757812 L 84.058594 38.976562 L 87.546875 35.496094 L 88.035156 35.984375 C 88.304688 36.253906 88.742188 36.253906 89.015625 35.984375 L 90.484375 34.519531 L 91.203125 35.234375 L 90.929688 36.589844 C 90.792969 37.269531 91.003906 37.972656 91.5 38.464844 " fill-opacity="1" fill-rule="nonzero"/></g></svg>