<svg xmlns="http://www.w3.org/2000/svg" xmlns:xlink="http://www.w3.org/1999/xlink" width="600" zoomAndPan="magnify" viewBox="0 0 450 149.999998" height="200" preserveAspectRatio="xMidYMid meet" version="1.0"><defs><g/><clipPath id="6b828456ed"><path d="M 0 61 L 217 61 L 217 150 L 0 150 Z M 0 61 " clip-rule="nonzero"/></clipPath><clipPath id="ba79ef0e31"><path d="M 91.195312 59.121094 L 218.898438 186.824219 L 100.875 304.847656 L -26.828125 177.144531 Z M 91.195312 59.121094 " clip-rule="nonzero"/></clipPath><clipPath id="729f3e0bad"><path d="M 95.96875 63.894531 L 214.074219 182 C 216.710938 184.636719 216.710938 188.910156 214.074219 191.546875 L 105.597656 300.023438 C 102.960938 302.660156 98.6875 302.660156 96.054688 300.023438 L -22.054688 181.917969 C -24.691406 179.28125 -24.691406 175.007812 -22.054688 172.371094 L 86.421875 63.894531 C 89.058594 61.257812 93.332031 61.257812 95.96875 63.894531 Z M 95.96875 63.894531 " clip-rule="nonzero"/></clipPath><clipPath id="ada6839551"><path d="M 244 61 L 450 61 L 450 150 L 244 150 Z M 244 61 " clip-rule="nonzero"/></clipPath><clipPath id="4932d7726a"><path d="M 359.363281 59.121094 L 487.066406 186.824219 L 369.042969 304.847656 L 241.34375 177.144531 Z M 359.363281 59.121094 " clip-rule="nonzero"/></clipPath><clipPath id="c412645b3d"><path d="M 364.136719 63.894531 L 482.242188 182 C 484.878906 184.636719 484.878906 188.910156 482.242188 191.546875 L 373.765625 300.023438 C 371.132812 302.660156 366.859375 302.660156 364.222656 300.023438 L 246.113281 181.917969 C 243.480469 179.28125 243.480469 175.007812 246.113281 172.371094 L 354.589844 63.894531 C 357.226562 61.257812 361.5 61.257812 364.136719 63.894531 Z M 364.136719 63.894531 " clip-rule="nonzero"/></clipPath></defs><rect x="-45" width="540" fill="#ffffff" y="-15" height="179.999997" fill-opacity="1"/><rect x="-45" width="540" fill="#2b2b2b" y="-15" height="179.999997" fill-opacity="1"/><g clip-path="url(#6b828456ed)"><g clip-path="url(#ba79ef0e31)"><g clip-path="url(#729f3e0bad)"><path fill="#346cb6" d="M 91.195312 59.121094 L 218.898438 186.824219 L 100.875 304.847656 L -26.828125 177.144531 Z M 91.195312 59.121094 " fill-opacity="1" fill-rule="nonzero"/></g></g></g><g clip-path="url(#ada6839551)"><g clip-path="url(#4932d7726a)"><g clip-path="url(#c412645b3d)"><path fill="#346cb6" d="M 359.363281 59.121094 L 487.066406 186.824219 L 369.042969 304.847656 L 241.34375 177.144531 Z M 359.363281 59.121094 " fill-opacity="1" fill-rule="nonzero"/></g></g></g><path fill="#2b2b2b" d="M 0 0 L 450 0 L 450 75 L 0 75 Z M 0 0 " fill-opacity="1" fill-rule="nonzero"/><g fill="#ffffff" fill-opacity="1"><g transform="translate(49.371095, 48.749999)"><g><path d="M 9.296875 -26.296875 L 9.296875 -25.703125 C 8.765625 -25.628906 8.441406 -25.441406 8.328125 -25.140625 C 8.210938 -24.847656 8.15625 -24.382812 8.15625 -23.75 L 8.15625 -14.75 L 19.65625 -14.75 L 19.65625 -23.84375 C 19.65625 -24.445312 19.585938 -24.890625 19.453125 -25.171875 C 19.316406 -25.453125 19 -25.628906 18.5 -25.703125 L 18.5 -26.296875 L 24.296875 -26.296875 L 24.296875 -25.703125 C 23.929688 -25.628906 23.679688 -25.46875 23.546875 -25.21875 C 23.410156 -24.96875 23.34375 -24.507812 23.34375 -23.84375 L 23.34375 -2.40625 C 23.34375 -1.738281 23.410156 -1.285156 23.546875 -1.046875 C 23.679688 -0.816406 23.929688 -0.664062 24.296875 -0.59375 L 24.296875 0 L 18.5 0 L 18.5 -0.59375 C 18.96875 -0.664062 19.273438 -0.816406 19.421875 -1.046875 C 19.578125 -1.285156 19.65625 -1.738281 19.65625 -2.40625 L 19.65625 -11.65625 L 8.15625 -11.65625 L 8.15625 -2.40625 C 8.15625 -1.738281 8.226562 -1.285156 8.375 -1.046875 C 8.519531 -0.816406 8.828125 -0.664062 9.296875 -0.59375 L 9.296875 0 L 3.5 0 L 3.5 -0.59375 C 3.894531 -0.664062 4.148438 -0.847656 4.265625 -1.140625 C 4.390625 -1.441406 4.453125 -1.878906 4.453125 -2.453125 L 4.453125 -23.84375 C 4.453125 -24.414062 4.390625 -24.847656 4.265625 -25.140625 C 4.148438 -25.441406 3.894531 -25.628906 3.5 -25.703125 L 3.5 -26.296875 Z M 9.296875 -26.296875 "/></g></g></g><g fill="#ffffff" fill-opacity="1"><g transform="translate(77.166789, 48.749999)"><g><path d="M 7.59375 -8.40625 L 14.546875 -8.40625 L 11.203125 -19.796875 L 11.09375 -19.796875 Z M 14.34375 -22 L 14.34375 -21.40625 C 14.082031 -21.300781 13.953125 -21.015625 13.953125 -20.546875 C 13.953125 -20.347656 13.992188 -20.125 14.078125 -19.875 C 14.160156 -19.625 14.285156 -19.21875 14.453125 -18.65625 L 19.75 -1.796875 C 19.945312 -1.128906 20.296875 -0.726562 20.796875 -0.59375 L 20.796875 0 L 16.203125 0 L 16.203125 -0.59375 C 16.367188 -0.632812 16.5 -0.726562 16.59375 -0.875 C 16.695312 -1.019531 16.75 -1.175781 16.75 -1.34375 C 16.75 -1.445312 16.710938 -1.609375 16.640625 -1.828125 C 16.578125 -2.046875 16.5 -2.335938 16.40625 -2.703125 L 15.34375 -6 L 6.75 -6 L 5.84375 -3.046875 C 5.675781 -2.546875 5.5625 -2.15625 5.5 -1.875 C 5.4375 -1.59375 5.40625 -1.367188 5.40625 -1.203125 C 5.40625 -0.867188 5.617188 -0.664062 6.046875 -0.59375 L 6.046875 0 L 1.40625 0 L 1.40625 -0.59375 C 1.800781 -0.695312 2.085938 -0.875 2.265625 -1.125 C 2.453125 -1.375 2.679688 -1.898438 2.953125 -2.703125 L 8.09375 -18.59375 C 8.363281 -19.363281 8.523438 -19.859375 8.578125 -20.078125 C 8.628906 -20.296875 8.65625 -20.453125 8.65625 -20.546875 C 8.65625 -20.910156 8.453125 -21.195312 8.046875 -21.40625 L 8.046875 -22 Z M 14.34375 -22 "/></g></g></g><g fill="#ffffff" fill-opacity="1"><g transform="translate(99.363347, 48.749999)"><g><path d="M 9.546875 -22 L 9.546875 -21.40625 C 9.015625 -21.332031 8.75 -21.097656 8.75 -20.703125 C 8.75 -20.503906 8.832031 -20.285156 9 -20.046875 L 17.703125 -5.90625 L 17.796875 -5.90625 L 17.796875 -19.546875 C 17.796875 -20.117188 17.738281 -20.550781 17.625 -20.84375 C 17.507812 -21.144531 17.25 -21.332031 16.84375 -21.40625 L 16.84375 -22 L 21.5 -22 L 21.5 -21.40625 C 21.132812 -21.332031 20.890625 -21.15625 20.765625 -20.875 C 20.648438 -20.59375 20.59375 -20.164062 20.59375 -19.59375 L 20.59375 -2.453125 C 20.59375 -1.785156 20.664062 -1.328125 20.8125 -1.078125 C 20.96875 -0.828125 21.226562 -0.664062 21.59375 -0.59375 L 21.59375 0 L 16.75 0 L 16.75 -0.59375 C 16.914062 -0.59375 17.070312 -0.617188 17.21875 -0.671875 C 17.375 -0.722656 17.453125 -0.832031 17.453125 -1 C 17.453125 -1.269531 17.285156 -1.660156 16.953125 -2.171875 C 16.617188 -2.691406 16.101562 -3.535156 15.40625 -4.703125 L 7.25 -17.90625 L 7.15625 -17.90625 L 7.15625 -2.40625 C 7.15625 -1.800781 7.21875 -1.363281 7.34375 -1.09375 C 7.476562 -0.832031 7.75 -0.664062 8.15625 -0.59375 L 8.15625 0 L 3.203125 0 L 3.203125 -0.59375 C 3.671875 -0.664062 3.976562 -0.804688 4.125 -1.015625 C 4.269531 -1.234375 4.34375 -1.675781 4.34375 -2.34375 L 4.34375 -19.546875 C 4.34375 -20.179688 4.285156 -20.628906 4.171875 -20.890625 C 4.054688 -21.160156 3.816406 -21.332031 3.453125 -21.40625 L 3.453125 -22 Z M 9.546875 -22 "/></g></g></g><g fill="#ffffff" fill-opacity="1"><g transform="translate(124.359474, 48.749999)"><g><path d="M 10.75 -2.40625 C 12.25 -2.40625 13.523438 -2.546875 14.578125 -2.828125 C 15.628906 -3.109375 16.476562 -3.585938 17.125 -4.265625 C 17.769531 -4.953125 18.242188 -5.84375 18.546875 -6.9375 C 18.847656 -8.039062 19 -9.410156 19 -11.046875 C 19 -12.378906 18.890625 -13.570312 18.671875 -14.625 C 18.453125 -15.675781 18.066406 -16.566406 17.515625 -17.296875 C 16.972656 -18.035156 16.234375 -18.601562 15.296875 -19 C 14.367188 -19.394531 13.203125 -19.59375 11.796875 -19.59375 L 7.65625 -19.59375 L 7.65625 -2.40625 Z M 12.703125 -22 C 15.835938 -22 18.1875 -21.023438 19.75 -19.078125 C 21.3125 -17.128906 22.09375 -14.46875 22.09375 -11.09375 C 22.09375 -7.257812 21.242188 -4.453125 19.546875 -2.671875 C 17.847656 -0.890625 15.113281 0 11.34375 0 L 3.453125 0 L 3.453125 -0.59375 C 3.921875 -0.664062 4.21875 -0.84375 4.34375 -1.125 C 4.476562 -1.40625 4.546875 -1.863281 4.546875 -2.5 L 4.546875 -19.546875 C 4.546875 -20.210938 4.46875 -20.671875 4.3125 -20.921875 C 4.164062 -21.171875 3.84375 -21.332031 3.34375 -21.40625 L 3.34375 -22 Z M 12.703125 -22 "/></g></g></g><g fill="#ffffff" fill-opacity="1"><g transform="translate(149.355601, 48.749999)"><g><path d="M 7.34375 -22 L 7.34375 -21.40625 C 7.113281 -21.363281 6.914062 -21.300781 6.75 -21.21875 C 6.582031 -21.132812 6.5 -21.007812 6.5 -20.84375 C 6.5 -20.675781 6.539062 -20.507812 6.625 -20.34375 C 6.707031 -20.175781 6.78125 -20.03125 6.84375 -19.90625 L 11.09375 -12.453125 L 14.65625 -18.75 C 14.914062 -19.21875 15.117188 -19.582031 15.265625 -19.84375 C 15.421875 -20.113281 15.5 -20.382812 15.5 -20.65625 C 15.5 -21.113281 15.21875 -21.363281 14.65625 -21.40625 L 14.65625 -22 L 19.84375 -22 L 19.84375 -21.40625 C 19.582031 -21.300781 19.382812 -21.210938 19.25 -21.140625 C 19.113281 -21.078125 18.976562 -20.96875 18.84375 -20.8125 C 18.71875 -20.664062 18.570312 -20.453125 18.40625 -20.171875 C 18.238281 -19.890625 18.019531 -19.5 17.75 -19 L 12.546875 -9.546875 L 12.546875 -2.34375 C 12.546875 -1.78125 12.601562 -1.363281 12.71875 -1.09375 C 12.84375 -0.832031 13.085938 -0.664062 13.453125 -0.59375 L 13.453125 0 L 8.546875 0 L 8.546875 -0.59375 C 8.910156 -0.664062 9.148438 -0.832031 9.265625 -1.09375 C 9.390625 -1.363281 9.453125 -1.78125 9.453125 -2.34375 L 9.453125 -9.5 L 3.546875 -19.75 C 3.285156 -20.25 3.046875 -20.609375 2.828125 -20.828125 C 2.609375 -21.046875 2.28125 -21.238281 1.84375 -21.40625 L 1.84375 -22 Z M 7.34375 -22 "/></g></g></g><g fill="#ffffff" fill-opacity="1"><g transform="translate(171.552159, 48.749999)"><g/></g></g><g fill="#ffffff" fill-opacity="1"><g transform="translate(184.050229, 48.749999)"><g><path d="M 15 -14.09375 C 16.601562 -14.09375 17.84375 -14.476562 18.71875 -15.25 C 19.601562 -16.019531 20.046875 -17.15625 20.046875 -18.65625 C 20.046875 -21.6875 18.179688 -23.203125 14.453125 -23.203125 L 8.59375 -23.203125 L 8.59375 -14.09375 Z M 14.296875 -26.296875 C 17.234375 -26.296875 19.539062 -25.613281 21.21875 -24.25 C 22.90625 -22.882812 23.75 -20.9375 23.75 -18.40625 C 23.75 -17.570312 23.625 -16.769531 23.375 -16 C 23.125 -15.226562 22.753906 -14.535156 22.265625 -13.921875 C 21.785156 -13.304688 21.195312 -12.796875 20.5 -12.390625 C 19.800781 -11.992188 19.019531 -11.75 18.15625 -11.65625 L 23.453125 -1.953125 C 23.847656 -1.179688 24.332031 -0.726562 24.90625 -0.59375 L 24.90625 0 L 19 0 L 19 -0.59375 C 19.5625 -0.695312 19.84375 -0.898438 19.84375 -1.203125 C 19.84375 -1.429688 19.734375 -1.710938 19.515625 -2.046875 C 19.304688 -2.378906 19.066406 -2.796875 18.796875 -3.296875 L 14.5 -11.296875 L 8.59375 -11.296875 L 8.59375 -2.40625 C 8.59375 -1.769531 8.675781 -1.328125 8.84375 -1.078125 C 9.007812 -0.828125 9.378906 -0.664062 9.953125 -0.59375 L 9.953125 0 L 3.453125 0 L 3.453125 -0.59375 C 4.015625 -0.664062 4.394531 -0.804688 4.59375 -1.015625 C 4.800781 -1.234375 4.90625 -1.695312 4.90625 -2.40625 L 4.90625 -23.796875 C 4.90625 -24.492188 4.8125 -24.96875 4.625 -25.21875 C 4.4375 -25.46875 4.007812 -25.628906 3.34375 -25.703125 L 3.34375 -26.296875 Z M 14.296875 -26.296875 "/></g></g></g><g fill="#ffffff" fill-opacity="1"><g transform="translate(211.845923, 48.749999)"><g><path d="M 7.59375 -8.40625 L 14.546875 -8.40625 L 11.203125 -19.796875 L 11.09375 -19.796875 Z M 14.34375 -22 L 14.34375 -21.40625 C 14.082031 -21.300781 13.953125 -21.015625 13.953125 -20.546875 C 13.953125 -20.347656 13.992188 -20.125 14.078125 -19.875 C 14.160156 -19.625 14.285156 -19.21875 14.453125 -18.65625 L 19.75 -1.796875 C 19.945312 -1.128906 20.296875 -0.726562 20.796875 -0.59375 L 20.796875 0 L 16.203125 0 L 16.203125 -0.59375 C 16.367188 -0.632812 16.5 -0.726562 16.59375 -0.875 C 16.695312 -1.019531 16.75 -1.175781 16.75 -1.34375 C 16.75 -1.445312 16.710938 -1.609375 16.640625 -1.828125 C 16.578125 -2.046875 16.5 -2.335938 16.40625 -2.703125 L 15.34375 -6 L 6.75 -6 L 5.84375 -3.046875 C 5.675781 -2.546875 5.5625 -2.15625 5.5 -1.875 C 5.4375 -1.59375 5.40625 -1.367188 5.40625 -1.203125 C 5.40625 -0.867188 5.617188 -0.664062 6.046875 -0.59375 L 6.046875 0 L 1.40625 0 L 1.40625 -0.59375 C 1.800781 -0.695312 2.085938 -0.875 2.265625 -1.125 C 2.453125 -1.375 2.679688 -1.898438 2.953125 -2.703125 L 8.09375 -18.59375 C 8.363281 -19.363281 8.523438 -19.859375 8.578125 -20.078125 C 8.628906 -20.296875 8.65625 -20.453125 8.65625 -20.546875 C 8.65625 -20.910156 8.453125 -21.195312 8.046875 -21.40625 L 8.046875 -22 Z M 14.34375 -22 "/></g></g></g><g fill="#ffffff" fill-opacity="1"><g transform="translate(234.042481, 48.749999)"><g><path d="M 9.546875 -22 L 9.546875 -21.40625 C 9.015625 -21.332031 8.75 -21.097656 8.75 -20.703125 C 8.75 -20.503906 8.832031 -20.285156 9 -20.046875 L 17.703125 -5.90625 L 17.796875 -5.90625 L 17.796875 -19.546875 C 17.796875 -20.117188 17.738281 -20.550781 17.625 -20.84375 C 17.507812 -21.144531 17.25 -21.332031 16.84375 -21.40625 L 16.84375 -22 L 21.5 -22 L 21.5 -21.40625 C 21.132812 -21.332031 20.890625 -21.15625 20.765625 -20.875 C 20.648438 -20.59375 20.59375 -20.164062 20.59375 -19.59375 L 20.59375 -2.453125 C 20.59375 -1.785156 20.664062 -1.328125 20.8125 -1.078125 C 20.96875 -0.828125 21.226562 -0.664062 21.59375 -0.59375 L 21.59375 0 L 16.75 0 L 16.75 -0.59375 C 16.914062 -0.59375 17.070312 -0.617188 17.21875 -0.671875 C 17.375 -0.722656 17.453125 -0.832031 17.453125 -1 C 17.453125 -1.269531 17.285156 -1.660156 16.953125 -2.171875 C 16.617188 -2.691406 16.101562 -3.535156 15.40625 -4.703125 L 7.25 -17.90625 L 7.15625 -17.90625 L 7.15625 -2.40625 C 7.15625 -1.800781 7.21875 -1.363281 7.34375 -1.09375 C 7.476562 -0.832031 7.75 -0.664062 8.15625 -0.59375 L 8.15625 0 L 3.203125 0 L 3.203125 -0.59375 C 3.671875 -0.664062 3.976562 -0.804688 4.125 -1.015625 C 4.269531 -1.234375 4.34375 -1.675781 4.34375 -2.34375 L 4.34375 -19.546875 C 4.34375 -20.179688 4.285156 -20.628906 4.171875 -20.890625 C 4.054688 -21.160156 3.816406 -21.332031 3.453125 -21.40625 L 3.453125 -22 Z M 9.546875 -22 "/></g></g></g><g fill="#ffffff" fill-opacity="1"><g transform="translate(259.038608, 48.749999)"><g><path d="M 10.75 -2.40625 C 12.25 -2.40625 13.523438 -2.546875 14.578125 -2.828125 C 15.628906 -3.109375 16.476562 -3.585938 17.125 -4.265625 C 17.769531 -4.953125 18.242188 -5.84375 18.546875 -6.9375 C 18.847656 -8.039062 19 -9.410156 19 -11.046875 C 19 -12.378906 18.890625 -13.570312 18.671875 -14.625 C 18.453125 -15.675781 18.066406 -16.566406 17.515625 -17.296875 C 16.972656 -18.035156 16.234375 -18.601562 15.296875 -19 C 14.367188 -19.394531 13.203125 -19.59375 11.796875 -19.59375 L 7.65625 -19.59375 L 7.65625 -2.40625 Z M 12.703125 -22 C 15.835938 -22 18.1875 -21.023438 19.75 -19.078125 C 21.3125 -17.128906 22.09375 -14.46875 22.09375 -11.09375 C 22.09375 -7.257812 21.242188 -4.453125 19.546875 -2.671875 C 17.847656 -0.890625 15.113281 0 11.34375 0 L 3.453125 0 L 3.453125 -0.59375 C 3.921875 -0.664062 4.21875 -0.84375 4.34375 -1.125 C 4.476562 -1.40625 4.546875 -1.863281 4.546875 -2.5 L 4.546875 -19.546875 C 4.546875 -20.210938 4.46875 -20.671875 4.3125 -20.921875 C 4.164062 -21.171875 3.84375 -21.332031 3.34375 -21.40625 L 3.34375 -22 Z M 12.703125 -22 "/></g></g></g><g fill="#ffffff" fill-opacity="1"><g transform="translate(284.034746, 48.749999)"><g><path d="M 7.34375 -22 L 7.34375 -21.40625 C 7.113281 -21.363281 6.914062 -21.300781 6.75 -21.21875 C 6.582031 -21.132812 6.5 -21.007812 6.5 -20.84375 C 6.5 -20.675781 6.539062 -20.507812 6.625 -20.34375 C 6.707031 -20.175781 6.78125 -20.03125 6.84375 -19.90625 L 11.09375 -12.453125 L 14.65625 -18.75 C 14.914062 -19.21875 15.117188 -19.582031 15.265625 -19.84375 C 15.421875 -20.113281 15.5 -20.382812 15.5 -20.65625 C 15.5 -21.113281 15.21875 -21.363281 14.65625 -21.40625 L 14.65625 -22 L 19.84375 -22 L 19.84375 -21.40625 C 19.582031 -21.300781 19.382812 -21.210938 19.25 -21.140625 C 19.113281 -21.078125 18.976562 -20.96875 18.84375 -20.8125 C 18.71875 -20.664062 18.570312 -20.453125 18.40625 -20.171875 C 18.238281 -19.890625 18.019531 -19.5 17.75 -19 L 12.546875 -9.546875 L 12.546875 -2.34375 C 12.546875 -1.78125 12.601562 -1.363281 12.71875 -1.09375 C 12.84375 -0.832031 13.085938 -0.664062 13.453125 -0.59375 L 13.453125 0 L 8.546875 0 L 8.546875 -0.59375 C 8.910156 -0.664062 9.148438 -0.832031 9.265625 -1.09375 C 9.390625 -1.363281 9.453125 -1.78125 9.453125 -2.34375 L 9.453125 -9.5 L 3.546875 -19.75 C 3.285156 -20.25 3.046875 -20.609375 2.828125 -20.828125 C 2.609375 -21.046875 2.28125 -21.238281 1.84375 -21.40625 L 1.84375 -22 Z M 7.34375 -22 "/></g></g></g><g fill="#ffffff" fill-opacity="1"><g transform="translate(306.231293, 48.749999)"><g/></g></g><g fill="#ffffff" fill-opacity="1"><g transform="translate(318.729362, 48.749999)"><g><path d="M 9 -26.296875 L 9 -25.703125 C 8.53125 -25.628906 8.238281 -25.441406 8.125 -25.140625 C 8.007812 -24.847656 7.953125 -24.414062 7.953125 -23.84375 L 7.953125 -3.09375 L 19.046875 -3.09375 C 20.179688 -3.09375 20.800781 -3.445312 20.90625 -4.15625 L 21.5 -4.15625 L 21.5 0.90625 L 20.90625 0.90625 C 20.832031 0.53125 20.617188 0.285156 20.265625 0.171875 C 19.921875 0.0546875 19.550781 0 19.15625 0 L 3.203125 0 L 3.203125 -0.59375 C 3.628906 -0.664062 3.910156 -0.832031 4.046875 -1.09375 C 4.179688 -1.363281 4.25 -1.816406 4.25 -2.453125 L 4.25 -23.84375 C 4.25 -24.414062 4.191406 -24.847656 4.078125 -25.140625 C 3.960938 -25.441406 3.671875 -25.628906 3.203125 -25.703125 L 3.203125 -26.296875 Z M 9 -26.296875 "/></g></g></g><g fill="#ffffff" fill-opacity="1"><g transform="translate(340.925932, 48.749999)"><g><path d="M 9 -26.296875 L 9 -25.703125 C 8.53125 -25.628906 8.238281 -25.441406 8.125 -25.140625 C 8.007812 -24.847656 7.953125 -24.414062 7.953125 -23.84375 L 7.953125 -3.09375 L 19.046875 -3.09375 C 20.179688 -3.09375 20.800781 -3.445312 20.90625 -4.15625 L 21.5 -4.15625 L 21.5 0.90625 L 20.90625 0.90625 C 20.832031 0.53125 20.617188 0.285156 20.265625 0.171875 C 19.921875 0.0546875 19.550781 0 19.15625 0 L 3.203125 0 L 3.203125 -0.59375 C 3.628906 -0.664062 3.910156 -0.832031 4.046875 -1.09375 C 4.179688 -1.363281 4.25 -1.816406 4.25 -2.453125 L 4.25 -23.84375 C 4.25 -24.414062 4.191406 -24.847656 4.078125 -25.140625 C 3.960938 -25.441406 3.671875 -25.628906 3.203125 -25.703125 L 3.203125 -26.296875 Z M 9 -26.296875 "/></g></g></g><g fill="#ffffff" fill-opacity="1"><g transform="translate(363.122479, 48.749999)"><g><path d="M 13.25 -26.59375 C 13.8125 -26.59375 14.425781 -26.550781 15.09375 -26.46875 C 15.757812 -26.382812 16.460938 -26.210938 17.203125 -25.953125 C 18.628906 -25.453125 19.707031 -24.910156 20.4375 -24.328125 C 21.175781 -23.742188 21.644531 -23.453125 21.84375 -23.453125 C 21.945312 -23.453125 22.03125 -23.46875 22.09375 -23.5 C 22.164062 -23.53125 22.25 -23.582031 22.34375 -23.65625 L 22.75 -23.453125 L 19.703125 -19.09375 L 19.203125 -19.34375 C 19.234375 -19.507812 19.253906 -19.644531 19.265625 -19.75 C 19.285156 -19.851562 19.296875 -19.988281 19.296875 -20.15625 C 19.296875 -20.488281 19.132812 -20.84375 18.8125 -21.21875 C 18.5 -21.601562 18.078125 -21.960938 17.546875 -22.296875 C 17.015625 -22.628906 16.378906 -22.910156 15.640625 -23.140625 C 14.910156 -23.378906 14.144531 -23.5 13.34375 -23.5 C 11.976562 -23.5 10.800781 -23.207031 9.8125 -22.625 C 8.832031 -22.039062 8.023438 -21.273438 7.390625 -20.328125 C 6.765625 -19.378906 6.304688 -18.285156 6.015625 -17.046875 C 5.734375 -15.816406 5.59375 -14.535156 5.59375 -13.203125 C 5.59375 -9.734375 6.34375 -7.128906 7.84375 -5.390625 C 9.34375 -3.660156 11.242188 -2.796875 13.546875 -2.796875 C 14.347656 -2.796875 15.113281 -2.925781 15.84375 -3.1875 C 16.582031 -3.457031 17.242188 -3.785156 17.828125 -4.171875 C 18.410156 -4.554688 18.867188 -4.945312 19.203125 -5.34375 C 19.535156 -5.75 19.703125 -6.101562 19.703125 -6.40625 C 19.703125 -6.570312 19.675781 -6.769531 19.625 -7 C 19.570312 -7.226562 19.476562 -7.445312 19.34375 -7.65625 L 20.09375 -7.953125 L 23.5 -3.25 L 22.953125 -2.90625 C 22.679688 -3.164062 22.414062 -3.296875 22.15625 -3.296875 C 21.988281 -3.296875 21.785156 -3.195312 21.546875 -3 C 21.316406 -2.800781 21.082031 -2.617188 20.84375 -2.453125 C 20.082031 -1.847656 19.109375 -1.238281 17.921875 -0.625 C 16.742188 -0.0078125 15.300781 0.296875 13.59375 0.296875 C 11.757812 0.296875 10.117188 -0.0351562 8.671875 -0.703125 C 7.222656 -1.367188 6 -2.289062 5 -3.46875 C 4 -4.65625 3.234375 -6.070312 2.703125 -7.71875 C 2.171875 -9.375 1.90625 -11.1875 1.90625 -13.15625 C 1.90625 -15.082031 2.171875 -16.867188 2.703125 -18.515625 C 3.234375 -20.171875 3.988281 -21.597656 4.96875 -22.796875 C 5.957031 -23.992188 7.148438 -24.925781 8.546875 -25.59375 C 9.953125 -26.257812 11.519531 -26.59375 13.25 -26.59375 Z M 13.25 -26.59375 "/></g></g></g><g fill="#ffffff" fill-opacity="1"><g transform="translate(388.118617, 48.749999)"><g><path d="M 6.25 -4.59375 C 6.914062 -4.59375 7.488281 -4.359375 7.96875 -3.890625 C 8.457031 -3.429688 8.703125 -2.851562 8.703125 -2.15625 C 8.703125 -1.445312 8.457031 -0.859375 7.96875 -0.390625 C 7.488281 0.0664062 6.914062 0.296875 6.25 0.296875 C 5.582031 0.296875 5.003906 0.0664062 4.515625 -0.390625 C 4.035156 -0.859375 3.796875 -1.445312 3.796875 -2.15625 C 3.796875 -2.851562 4.035156 -3.429688 4.515625 -3.890625 C 5.003906 -4.359375 5.582031 -4.59375 6.25 -4.59375 Z M 6.25 -4.59375 "/></g></g></g><path stroke-linecap="butt" transform="matrix(0.75, 0, 0, 0.75, 0.00000375, 74.624998)" fill="none" stroke-linejoin="miter" d="M -0.000005 0.500003 L 600.00003 0.500003 " stroke="#ffffff" stroke-width="1" stroke-opacity="1" stroke-miterlimit="4"/></svg>